<?xml version="1.0" encoding="UTF-8" standalone="no"?>
<svg
   xmlns:dc="http://purl.org/dc/elements/1.1/"
   xmlns:cc="http://creativecommons.org/ns#"
   xmlns:rdf="http://www.w3.org/1999/02/22-rdf-syntax-ns#"
   xmlns:svg="http://www.w3.org/2000/svg"
   xmlns="http://www.w3.org/2000/svg"
   xmlns:sodipodi="http://sodipodi.sourceforge.net/DTD/sodipodi-0.dtd"
   xmlns:inkscape="http://www.inkscape.org/namespaces/inkscape"
   sodipodi:docname="finallight.svg"
   inkscape:version="1.0 (4035a4fb49, 2020-05-01)"
   id="svg8"
   version="1.1"
   viewBox="0 0 144.87489 123.52627"
   height="123.52627mm"
   width="144.87489mm">
  <defs
     id="defs2">
    <clipPath
       clipPathUnits="userSpaceOnUse"
       id="clipPath40">
      <path
         d="M 0,500 H 500 V 0 H 0 Z"
         id="path38" />
    </clipPath>
    <clipPath
       clipPathUnits="userSpaceOnUse"
       id="clipPath108">
      <path
         d="M 0,500 H 500 V 0 H 0 Z"
         id="path106" />
    </clipPath>
    <clipPath
       clipPathUnits="userSpaceOnUse"
       id="clipPath120">
      <path
         d="M 53.3988,417.652 H 447.198 V 169.81 H 53.3988 Z"
         id="path118" />
    </clipPath>
    <clipPath
       clipPathUnits="userSpaceOnUse"
       id="clipPath136">
      <path
         d="M 0,500 H 500 V 0 H 0 Z"
         id="path134" />
    </clipPath>
    <clipPath
       clipPathUnits="userSpaceOnUse"
       id="clipPath148">
      <path
         d="M 0,500 H 500 V 0 H 0 Z"
         id="path146" />
    </clipPath>
    <clipPath
       clipPathUnits="userSpaceOnUse"
       id="clipPath176">
      <path
         d="M 0,500 H 500 V 0 H 0 Z"
         id="path174" />
    </clipPath>
    <clipPath
       clipPathUnits="userSpaceOnUse"
       id="clipPath208">
      <path
         d="m 253.278,307.338 h 34.119 v -34.131 h -34.119 z"
         id="path206" />
    </clipPath>
    <clipPath
       clipPathUnits="userSpaceOnUse"
       id="clipPath300">
      <path
         d="M 0,500 H 500 V 0 H 0 Z"
         id="path298" />
    </clipPath>
    <clipPath
       clipPathUnits="userSpaceOnUse"
       id="clipPath328">
      <path
         d="m 289.895,224.359 h 2.514 v -28.636 h -2.514 z"
         id="path326" />
    </clipPath>
    <clipPath
       clipPathUnits="userSpaceOnUse"
       id="clipPath344">
      <path
         d="m 282.389,240.007 h 5.809 v -8.766 h -5.809 z"
         id="path342" />
    </clipPath>
    <clipPath
       clipPathUnits="userSpaceOnUse"
       id="clipPath392">
      <path
         d="m 303.469,202.778 h 41.635 V 87.762 h -41.635 z"
         id="path390" />
    </clipPath>
    <clipPath
       clipPathUnits="userSpaceOnUse"
       id="clipPath444">
      <path
         d="m 116.939,118.822 h 17.116 V 85.3333 h -17.116 z"
         id="path442" />
    </clipPath>
    <clipPath
       clipPathUnits="userSpaceOnUse"
       id="clipPath472">
      <path
         d="m 261.395,107.557 h 6.896 V 73.7477 h -6.896 z"
         id="path470" />
    </clipPath>
    <clipPath
       clipPathUnits="userSpaceOnUse"
       id="clipPath520">
      <path
         d="M 0,500 H 500 V 0 H 0 Z"
         id="path518" />
    </clipPath>
    <filter
       height="1.0000124"
       y="-6.2134046e-06"
       width="1.0000078"
       x="-3.9104615e-06"
       id="filter2687"
       style="color-interpolation-filters:sRGB"
       inkscape:collect="always">
      <feGaussianBlur
         id="feGaussianBlur2689"
         stdDeviation="0.00064164027"
         inkscape:collect="always" />
    </filter>
  </defs>
  <sodipodi:namedview
     inkscape:window-maximized="1"
     inkscape:window-y="-8"
     inkscape:window-x="-8"
     inkscape:window-height="1017"
     inkscape:window-width="1920"
     showgrid="false"
     inkscape:document-rotation="0"
     inkscape:current-layer="layer1"
     inkscape:document-units="px"
     inkscape:cy="186.65112"
     inkscape:cx="237.05031"
     inkscape:zoom="1.0610557"
     inkscape:pageshadow="2"
     inkscape:pageopacity="0"
     borderopacity="1.0"
     bordercolor="#666666"
     pagecolor="#ffffff"
     id="base" />
  <metadata
     id="metadata5">
    <rdf:RDF>
      <cc:Work
         rdf:about="">
        <dc:format>image/svg+xml</dc:format>
        <dc:type
           rdf:resource="http://purl.org/dc/dcmitype/StillImage" />
        <dc:title></dc:title>
      </cc:Work>
    </rdf:RDF>
  </metadata>
  <g
     transform="translate(-29.616127,7.334559)"
     id="layer1"
     inkscape:groupmode="layer"
     inkscape:label="Layer 1">
    <path
       d="m 124.51049,104.19539 h 12.0329 v -0.0882 h -12.0329 z"
       style="fill:#ececec;fill-opacity:1;fill-rule:nonzero;stroke:none;stroke-width:0.352778"
       id="path24" />
    <g
       style="fill:#a6a6a6;fill-opacity:1;stroke-width:0.99975;stroke-miterlimit:4;stroke-dasharray:none"
       id="g50"
       transform="matrix(0.35277777,0,0,-0.35277777,59.85271,51.241046)">
      <path
         d="M 0,0 C -28.778,0.986 -51.313,25.12 -50.327,53.899 -49.34,82.712 -25.206,105.245 3.572,104.26 32.351,103.273 54.885,79.142 53.898,50.328 52.912,21.549 28.778,-0.986 0,0 m 88.796,42.571 0.451,13.141 -8.068,2.636 c -0.332,4.49 -1.082,8.923 -2.151,13.196 l 6.838,5.042 -4.645,12.343 -8.459,-0.681 c -2.015,3.991 -4.385,7.787 -7.04,11.35 l 4.382,7.312 -9.009,9.611 -7.562,-3.872 c -3.406,2.895 -6.996,5.517 -10.839,7.835 l 1.225,8.394 -11.998,5.445 -5.497,-6.442 c -4.188,1.358 -8.528,2.375 -13.017,3.049 l -2.044,8.228 -13.176,0.451 -2.602,-8.068 c -4.525,-0.365 -8.923,-1.083 -13.195,-2.151 l -5.078,6.804 -12.342,-4.611 0.682,-8.46 c -3.992,-2.049 -7.788,-4.418 -11.35,-7.073 l -7.279,4.38 -9.645,-8.972 3.871,-7.596 c -2.893,-3.372 -5.516,-6.998 -7.801,-10.841 l -8.392,1.258 -5.479,-11.995 6.477,-5.499 c -1.358,-4.188 -2.411,-8.561 -3.05,-13.017 l -8.264,-2.077 -0.45,-13.141 8.102,-2.639 c 0.331,-4.523 1.084,-8.924 2.152,-13.194 l -6.837,-5.042 4.645,-12.345 8.458,0.684 c 2.016,-3.992 4.385,-7.788 7.04,-11.351 l -4.382,-7.312 9.009,-9.613 7.561,3.873 c 3.372,-2.893 6.997,-5.517 10.84,-7.836 l -1.26,-8.39 11.998,-5.446 5.532,6.442 c 4.188,-1.36 8.527,-2.376 13.017,-3.05 l 2.043,-8.227 13.176,-0.453 2.603,8.07 c 4.524,0.365 8.923,1.082 13.194,2.151 l 5.044,-6.804 12.342,4.612 -0.648,8.456 c 3.994,2.05 7.755,4.421 11.351,7.076 l 7.279,-4.382 9.645,8.973 -3.871,7.595 c 2.893,3.373 5.517,6.998 7.801,10.842 l 8.392,-1.26 5.479,11.998 -6.477,5.498 c 1.358,4.187 2.41,8.526 3.049,13.016 z"
         style="fill:#a6a6a6;fill-opacity:1;fill-rule:nonzero;stroke:none;stroke-width:0.99975;stroke-miterlimit:4;stroke-dasharray:none"
         id="path52" />
    </g>
    <g
       style="fill:#a6a6a6;fill-opacity:1"
       id="g54"
       transform="matrix(0.35277777,0,0,-0.35277777,162.18119,14.143924)">
      <path
         d="M 0,0 C -2.438,2.611 -2.298,6.705 0.313,9.144 2.928,11.585 7.022,11.444 9.46,8.833 11.898,6.222 11.758,2.128 9.144,-0.313 6.532,-2.752 2.438,-2.611 0,0 m 23.616,-19.131 3.314,3.095 -1.324,2.609 c 1.014,1.176 1.912,2.441 2.693,3.742 l 2.897,-0.437 1.877,4.143 -2.229,1.895 c 0.482,1.465 0.83,2.969 1.051,4.485 l 2.852,0.714 0.147,4.541 -2.788,0.9 c -0.125,1.536 -0.361,3.05 -0.733,4.553 l 2.346,1.748 -1.598,4.253 -2.912,-0.23 c -0.69,1.352 -1.5,2.659 -2.43,3.918 l 1.508,2.505 -3.103,3.323 -2.602,-1.334 c -1.193,1.015 -2.44,1.912 -3.742,2.693 l 0.421,2.898 -4.134,1.886 -1.897,-2.23 c -1.473,0.474 -2.976,0.821 -4.492,1.043 L 8.031,34.425 3.491,34.589 2.583,31.793 C 1.055,31.676 -0.468,31.432 -1.963,31.052 l -1.739,2.352 -4.261,-1.589 0.238,-2.919 c -1.352,-0.691 -2.675,-1.5 -3.918,-2.431 l -2.521,1.509 -3.314,-3.095 1.332,-2.619 c -1.022,-1.184 -1.912,-2.441 -2.693,-3.742 l -2.896,0.438 -1.878,-4.143 2.229,-1.896 c -0.481,-1.465 -0.83,-2.969 -1.051,-4.484 l -2.851,-0.715 -0.148,-4.541 2.789,-0.899 c 0.116,-1.528 0.36,-3.051 0.732,-4.554 l -2.353,-1.739 1.598,-4.254 2.919,0.222 c 0.69,-1.352 1.5,-2.658 2.431,-3.917 l -1.508,-2.505 3.102,-3.323 2.603,1.333 c 1.192,-1.014 2.439,-1.912 3.742,-2.692 l -0.43,-2.889 4.134,-1.886 1.904,2.22 c 1.474,-0.474 2.969,-0.813 4.494,-1.042 l 0.706,-2.844 4.54,-0.163 0.908,2.796 c 1.528,0.116 3.052,0.36 4.546,0.741 l 1.739,-2.353 4.262,1.589 -0.239,2.92 c 1.352,0.69 2.667,1.492 3.918,2.43 z"
         style="fill:#a6a6a6;fill-opacity:1;fill-rule:nonzero;stroke:none"
         id="path56" />
    </g>
    <g
       id="g58"
       transform="matrix(0.35277777,0,0,-0.35277777,103.68923,80.266336)">
      <path
         d="M 0,0 C -13.654,0.468 -24.32,11.931 -23.854,25.546 -23.386,39.2 -11.962,49.867 1.692,49.399 15.347,48.932 26.014,37.508 25.546,23.854 25.08,10.238 13.654,-0.468 0,0 m 68.452,33.39 -10.341,7.141 c -0.003,0.007 -0.003,0.017 -0.006,0.025 -1.022,3.757 -2.434,7.373 -4.159,10.771 L 56.595,61.725 41.596,77.79 31.037,75.856 c -3.269,1.952 -6.779,3.606 -10.454,4.883 -0.008,0.002 -0.018,0.004 -0.026,0.008 l -6.42,10.81 -21.964,0.753 -7.142,-10.341 c -0.013,-0.004 -0.028,-0.007 -0.041,-0.011 -3.753,-1.022 -7.365,-2.431 -10.76,-4.153 l -10.393,2.649 -16.064,-15.001 1.929,-10.537 c -0.002,-0.004 -0.004,-0.006 -0.006,-0.01 -1.992,-3.306 -3.607,-6.817 -4.884,-10.493 L -65.996,37.996 -66.749,16.03 -56.398,8.883 c 1.021,-3.783 2.389,-7.391 4.147,-10.819 10e-4,-0.001 10e-4,-0.001 10e-4,-0.003 l -2.641,-10.367 14.999,-16.062 10.494,1.92 c 3.312,-1.958 6.825,-3.614 10.546,-4.893 0.002,-0.002 0.005,-0.003 0.009,-0.003 l 6.409,-10.794 21.965,-0.753 7.136,10.334 c 3.798,1.022 7.416,2.432 10.852,4.159 0.001,0 0.002,0 0.003,0.002 l 10.345,-2.636 16.064,14.998 -1.929,10.54 c 1.992,3.306 3.608,6.819 4.885,10.495 0,0 0,0.002 10e-4,0.002 L 67.7,11.424 Z"
         style="fill:#ececec;fill-opacity:1;fill-rule:nonzero;stroke:none"
         id="path60" />
    </g>
    <g
       id="g62"
       transform="matrix(0.35277777,0,0,-0.35277777,133.72924,17.258282)">
      <path
         d="m 0,0 c -14.698,0 -26.9,-11.695 -27.407,-26.496 -0.518,-15.118 11.36,-27.839 26.479,-28.358 7.325,-0.245 14.311,2.369 19.668,7.377 5.353,5.004 8.439,11.789 8.69,19.102 C 27.947,-13.257 16.069,-0.535 0.951,-0.017 0.633,-0.006 0.315,0 0,0 m 0.038,-59.094 c -0.37,0 -0.739,0.007 -1.111,0.02 -17.446,0.597 -31.153,15.277 -30.555,32.722 C -31.03,-8.906 -16.327,4.797 1.095,4.204 18.541,3.606 32.248,-11.073 31.65,-28.52 31.361,-36.96 27.8,-44.788 21.624,-50.562 15.713,-56.087 8.084,-59.094 0.038,-59.094 m 15.513,75.847 h 0.01 z m -24.783,-94.812 15.009,-0.514 4.971,7.198 c 0.284,0.411 0.705,0.709 1.189,0.839 2.764,0.743 5.508,1.795 8.154,3.126 0.005,0.002 0.01,0.004 0.014,0.007 0.441,0.216 0.955,0.284 1.458,0.153 l 7.039,-1.793 10.976,10.249 -1.313,7.174 c -0.093,0.506 0.003,1.028 0.268,1.47 1.448,2.403 2.676,5.039 3.651,7.834 0.16,0.496 0.499,0.913 0.941,1.172 l 7.522,4.468 0.515,15.01 -7.204,4.975 c -0.376,0.259 -0.658,0.635 -0.803,1.069 -0.018,0.054 -0.034,0.111 -0.049,0.169 -0.753,2.758 -1.8,5.468 -3.114,8.055 -0.232,0.457 -0.289,0.981 -0.163,1.477 l 1.804,7.078 -10.25,10.979 -7.189,-1.317 c -0.504,-0.092 -1.023,0.002 -1.462,0.264 -2.5,1.492 -5.14,2.725 -7.846,3.666 -0.153,0.053 -0.308,0.124 -0.441,0.205 -0.292,0.18 -0.535,0.427 -0.709,0.721 l -4.472,7.529 -15.01,0.515 -4.974,-7.204 c -0.296,-0.429 -0.739,-0.732 -1.243,-0.853 -2.777,-0.761 -5.478,-1.805 -8.054,-3.112 -0.457,-0.232 -0.983,-0.29 -1.477,-0.163 l -7.075,1.803 -10.977,-10.251 1.313,-7.172 c 0.082,-0.451 0.016,-0.915 -0.189,-1.325 -0.029,-0.057 -0.06,-0.114 -0.095,-0.17 -1.451,-2.412 -2.681,-5.055 -3.654,-7.859 -0.164,-0.47 -0.489,-0.868 -0.917,-1.122 l -7.528,-4.471 -0.514,-15.008 7.21,-4.98 c 0.411,-0.283 0.708,-0.704 0.838,-1.186 0.777,-2.876 1.824,-5.607 3.11,-8.118 0.075,-0.143 0.132,-0.296 0.171,-0.454 0.085,-0.339 0.085,-0.694 -0.002,-1.033 l -1.798,-7.054 10.25,-10.975 7.138,1.305 c 0.502,0.091 1.018,-0.002 1.455,-0.259 2.545,-1.505 5.198,-2.738 7.887,-3.665 0.486,-0.155 0.907,-0.483 1.175,-0.934 z m 16.09,-4.775 c -0.024,0 -0.047,0 -0.072,0.001 l -17.317,0.593 c -0.719,0.024 -1.376,0.414 -1.743,1.032 l -4.663,7.853 c -2.479,0.899 -4.922,2.033 -7.282,3.377 l -7.507,-1.373 c -0.709,-0.133 -1.432,0.11 -1.923,0.636 l -11.826,12.663 c -0.491,0.527 -0.68,1.266 -0.503,1.963 l 1.888,7.41 c -1.147,2.347 -2.107,4.854 -2.859,7.47 l -7.531,5.201 c -0.592,0.408 -0.935,1.091 -0.911,1.81 l 0.594,17.317 c 0.024,0.719 0.413,1.376 1.032,1.743 l 7.866,4.671 c 0.933,2.554 2.064,4.986 3.37,7.248 l -1.38,7.533 c -0.129,0.707 0.111,1.433 0.636,1.923 l 12.665,11.827 c 0.526,0.493 1.266,0.68 1.963,0.503 l 7.435,-1.895 c 2.405,1.17 4.904,2.134 7.449,2.871 l 5.197,7.525 c 0.408,0.592 1.079,0.958 1.809,0.911 l 17.317,-0.594 c 0.719,-0.025 1.376,-0.413 1.743,-1.032 l 4.673,-7.867 c 2.481,-0.909 4.906,-2.04 7.226,-3.372 l 7.554,1.384 c 0.709,0.129 1.432,-0.11 1.924,-0.636 L 45.507,3.196 C 45.998,2.67 46.188,1.931 46.01,1.233 l -1.895,-7.437 c 1.171,-2.406 2.134,-4.904 2.871,-7.446 l 7.525,-5.197 c 0.593,-0.408 0.935,-1.09 0.911,-1.809 l -0.593,-17.319 c -0.025,-0.718 -0.414,-1.376 -1.033,-1.743 l -7.869,-4.673 c -0.932,-2.552 -2.062,-4.983 -3.366,-7.243 l 1.379,-7.536 c 0.13,-0.707 -0.11,-1.433 -0.636,-1.923 L 30.64,-72.917 c -0.526,-0.492 -1.264,-0.682 -1.963,-0.503 l -7.401,1.886 c -2.44,-1.178 -4.952,-2.141 -7.488,-2.87 l -5.192,-7.519 c -0.395,-0.571 -1.045,-0.911 -1.738,-0.911"
         style="fill:#ececec;fill-opacity:1;fill-rule:nonzero;stroke:none"
         id="path64" />
    </g>
    <g
       style="fill:#2d2d2d;fill-opacity:1"
       id="g66"
       transform="matrix(0.35277777,0,0,-0.35277777,150.22129,2.513265)">
      <path
         d="M 0,0 -7.174,1.927 -9.1,9.1 -6.291,11.908 -3.328,5.771 2.809,2.809 Z"
         style="fill:#2d2d2d;fill-opacity:1;fill-rule:nonzero;stroke:none"
         id="path68" />
    </g>
    <g
       style="fill:#2d2d2d;fill-opacity:1"
       id="g70"
       transform="matrix(0.35277777,0,0,-0.35277777,150.37845,0.819332)">
      <path
         d="M 0,0 C 1.307,1.307 1.307,3.437 0,4.744 -1.307,6.05 -3.427,6.041 -4.734,4.734 L -1.166,10.087 3.619,7.668 4.668,2.64 Z"
         style="fill:#2d2d2d;fill-opacity:1;fill-rule:nonzero;stroke:none"
         id="path72" />
    </g>
    <g
       id="g74"
       transform="matrix(0.35277777,0,0,-0.35277777,151.16962,0.028333)">
      <path
         d="M 0,0 C 1.307,1.307 1.307,3.438 0,4.744 -1.307,6.051 -3.427,6.041 -4.734,4.734 -6.041,3.428 -6.041,1.316 -4.734,0.01 -3.427,-1.297 -1.307,-1.307 0,0 m -9.545,4.298 5.256,5.257 7.174,-1.926 1.926,-7.174 -5.257,-5.257 -7.173,1.927 z"
         style="fill:#f0f0f0;fill-opacity:1;fill-rule:nonzero;stroke:none"
         id="path76" />
    </g>
    <g
       id="g78"
       transform="matrix(0.35277777,0,0,-0.35277777,46.780459,70.029566)">
      <path
         d="M 0,0 3.849,1.034 4.883,4.883 3.376,6.39 1.786,3.098 -1.507,1.507 Z"
         style="fill:#e1e1e1;fill-opacity:1;fill-rule:nonzero;stroke:none"
         id="path80" />
    </g>
    <g
       id="g82"
       transform="matrix(0.35277777,0,0,-0.35277777,46.696074,69.120746)">
      <path
         d="M 0,0 C -0.701,0.702 -0.701,1.845 0,2.546 0.701,3.247 1.839,3.242 2.541,2.541 L 0.626,5.413 -1.942,4.115 -2.505,1.417 Z"
         style="fill:#e1e1e1;fill-opacity:1;fill-rule:nonzero;stroke:none"
         id="path84" />
    </g>
    <g
       id="g86"
       transform="matrix(0.35277777,0,0,-0.35277777,46.271542,68.695966)">
      <path
         d="M 0,0 C -0.701,0.701 -0.701,1.844 0,2.545 0.701,3.246 1.839,3.241 2.541,2.54 3.242,1.839 3.242,0.706 2.541,0.005 1.839,-0.696 0.701,-0.701 0,0 m 5.122,2.306 -2.821,2.821 -3.849,-1.033 -1.034,-3.85 2.821,-2.821 3.85,1.034 z"
         style="fill:#f0f0f0;fill-opacity:1;fill-rule:nonzero;stroke:none"
         id="path88" />
    </g>
    <g
       style="fill:#4f4f4f;fill-opacity:1"
       id="g90"
       transform="matrix(0.35277777,0,0,-0.35277777,41.891523,-4.422734)">
      <path
         d="m 0,0 3.195,-3.195 c 0.832,-0.832 2.193,-0.832 3.025,0 0.832,0.832 0.832,2.193 0,3.025 L 3.025,3.024 C 2.193,3.856 0.832,3.856 0,3.024 -0.832,2.192 -0.832,0.831 0,0"
         style="fill:#4f4f4f;fill-opacity:1;fill-rule:nonzero;stroke:none"
         id="path92" />
    </g>
    <g
       id="g94"
       transform="matrix(0.35277777,0,0,-0.35277777,41.097527,-7.229787)">
      <path
         d="M 0,0 C 2.462,0.884 5.131,-0.272 5.961,-2.584 6.791,-4.895 5.468,-7.484 3.006,-8.369 0.544,-9.253 -2.125,-8.097 -2.955,-5.786 -3.785,-3.475 -2.462,-0.885 0,0"
         style="fill:#e1e1e1;fill-opacity:1;fill-rule:nonzero;stroke:none"
         id="path96" />
    </g>
    <g
       id="g98"
       transform="matrix(0.35277777,0,0,-0.35277777,39.869084,-5.378762)">
      <path
         d="M 0,0 0.463,-1.29 9.97,2.125 9.507,3.414 Z"
         style="fill:#4f4f4f;fill-opacity:1;fill-rule:nonzero;stroke:none"
         id="path100" />
    </g>
    <g
       style="fill:#e9e9e9;fill-opacity:1;filter:url(#filter2687)"
       id="g102"
       transform="matrix(0.35277777,0,0,-0.35277777,14.952531,141.74647)">
      <g
         style="fill:#e9e9e9;fill-opacity:1"
         id="g104"
         clip-path="url(#clipPath108)">
        <g
           style="fill:#e9e9e9;fill-opacity:1"
           id="g110"
           transform="translate(418.9106,374.5762)">
          <path
             d="m 0,0 c 39.287,-31.84 35.519,-75.55 1.844,-100.469 -16.15,-11.951 -48.669,-9.635 -67.166,-18.071 -24.13,-11.006 -36.378,-31.39 -54.869,-47.664 -45.994,-40.48 -60.954,-20.469 -113.319,-20.999 -36.815,-0.373 -71.812,-31.403 -108.696,-10.097 -45.078,26.039 -17.163,78.178 19.643,98.308 42.272,23.12 15.678,77.47 76.484,117.507 C -186.264,57.899 -58.35,48.613 0,0"
             style="fill:#e9e9e9;fill-opacity:1;fill-rule:nonzero;stroke:none"
             id="path112" />
        </g>
        <g
           style="fill:#e9e9e9;fill-opacity:1"
           id="g114">
          <g
             style="fill:#e9e9e9;fill-opacity:1"
             id="g116" />
          <g
             style="fill:#e9e9e9;fill-opacity:1"
             id="g128">
            <g
               style="fill:#e9e9e9;fill-opacity:1"
               clip-path="url(#clipPath120)"
               opacity="0.899994"
               id="g126">
              <g
                 style="fill:#e9e9e9;fill-opacity:1"
                 transform="translate(418.9106,374.5762)"
                 id="g124">
                <path
                   d="m 0,0 c 39.287,-31.84 35.519,-75.55 1.844,-100.469 -16.15,-11.951 -48.669,-9.635 -67.166,-18.071 -24.13,-11.006 -36.378,-31.39 -54.869,-47.664 -45.994,-40.48 -60.954,-20.469 -113.319,-20.999 -36.815,-0.373 -71.812,-31.403 -108.696,-10.097 -45.078,26.039 -17.163,78.178 19.643,98.308 42.272,23.12 15.678,77.47 76.484,117.507 C -186.264,57.899 -58.35,48.613 0,0"
                   style="fill:#e9e9e9;fill-opacity:1;fill-rule:nonzero;stroke:none"
                   id="path122" />
              </g>
            </g>
          </g>
        </g>
      </g>
    </g>
    <g
       style="fill:#6a6a6a;fill-opacity:1"
       id="g130"
       transform="matrix(0.35277777,0,0,-0.35277777,14.952531,141.74647)">
      <g
         style="fill:#6a6a6a;fill-opacity:1"
         id="g132"
         clip-path="url(#clipPath136)">
        <g
           style="fill:#6a6a6a;fill-opacity:1"
           id="g138"
           transform="translate(443.8894,83.7617)">
          <path
             d="m 0,0 c 0,-6.254 -86.807,-11.323 -193.889,-11.323 -107.082,0 -193.889,5.069 -193.889,11.323 0,6.254 86.807,11.323 193.889,11.323 C -86.807,11.323 0,6.254 0,0"
             style="fill:#6a6a6a;fill-opacity:1;fill-rule:nonzero;stroke:none"
             id="path140" />
        </g>
      </g>
    </g>
    <g
       style="fill:#2b2b2b;fill-opacity:1"
       id="g178"
       transform="matrix(0.35277777,0,0,-0.35277777,53.499711,17.479795)">
      <path
         d="m 0,0 c -0.168,-0.155 -0.655,-0.785 -1.352,-3.221 -0.919,-3.213 -0.353,-6.143 0.727,-8.246 0.208,0.434 0.351,0.934 0.45,1.403 C 0.863,-5.154 0.561,-0.711 0,0 M 6.586,-3.15 C 6.328,-3.636 5.894,-4.635 5.246,-6.68 4.388,-9.388 4.383,-11.563 4.861,-13.228 c 0.034,0.084 0.065,0.168 0.093,0.251 1.177,3.439 1.75,8.175 1.632,9.827 m 7.172,-4.213 c -0.003,0 -0.565,-0.004 -1.827,-2.347 -1.446,-2.685 -1.815,-4.894 -1.127,-6.757 0.084,-0.227 0.183,-0.45 0.3,-0.67 0.534,0.229 0.991,0.601 1.321,1.105 1.4,2.14 2.071,6.538 1.55,8.257 -0.106,0.351 -0.216,0.412 -0.217,0.412 m 5.655,-16.47 c -0.06,0 -0.121,0.011 -0.181,0.034 -4.501,1.743 -7.194,3.446 -8.592,5.492 -1.016,-0.204 -2.154,-0.069 -3.232,0.445 -1.049,0.498 -2.057,1.369 -2.781,2.622 -0.675,-0.521 -1.509,-0.663 -2.425,-0.375 -1.016,0.319 -2.073,1.175 -2.952,2.411 -0.559,-0.404 -1.132,-0.465 -1.553,-0.43 -2.973,0.242 -7.001,6.16 -7.29,12.467 -0.013,0.275 0.2,0.51 0.476,0.521 0.27,0.024 0.51,-0.2 0.523,-0.476 0.274,-5.985 4.109,-11.331 6.372,-11.515 0.367,-0.036 0.675,0.079 0.932,0.28 -1.358,2.382 -2.063,5.781 -1.023,9.412 0.86,3.005 1.62,4.179 2.532,3.962 1.723,-0.429 1.497,-6.972 0.585,-11.288 -0.207,-0.979 -0.506,-1.681 -0.846,-2.183 0.79,-1.165 1.724,-1.949 2.543,-2.207 0.732,-0.23 1.274,-0.035 1.674,0.346 -0.786,1.935 -0.948,4.574 0.118,7.938 1.404,4.429 1.969,4.549 2.307,4.62 0.238,0.051 0.475,-0.028 0.644,-0.22 C 8.168,-3.02 7.064,-9.898 5.9,-13.301 5.749,-13.743 5.562,-14.13 5.343,-14.458 c 0.621,-1.217 1.536,-2.046 2.493,-2.501 0.768,-0.365 1.556,-0.498 2.273,-0.431 -0.09,0.19 -0.171,0.381 -0.243,0.577 -0.793,2.147 -0.406,4.625 1.184,7.578 1.055,1.958 1.916,2.871 2.708,2.872 h 0.001 c 0.235,0 0.675,-0.087 0.986,-0.662 0.872,-1.61 0.241,-6.919 -1.483,-9.554 -0.406,-0.621 -0.967,-1.092 -1.617,-1.399 1.339,-1.761 3.883,-3.314 7.948,-4.889 0.258,-0.1 0.386,-0.389 0.286,-0.647 -0.077,-0.198 -0.266,-0.319 -0.466,-0.319"
         style="fill:#2b2b2b;fill-opacity:1;fill-rule:nonzero;stroke:none"
         id="path180" />
    </g>
    <g
       style="fill-opacity:1;fill:#2b2b2b"
       id="g182"
       transform="matrix(0.35277777,0,0,-0.35277777,74.677913,40.433104)">
      <path
         d="m 0,0 c 0.056,-0.156 0.278,-0.567 1.166,-1.388 1.486,-1.374 2.838,-1.985 4.131,-1.843 0.106,0.01 0.213,0.026 0.32,0.047 C 5.546,-2.88 5.401,-2.599 5.183,-2.358 3.775,-0.816 0.683,0.16 0,0 m -3.49,-4.249 c 0.336,-0.248 0.818,-0.576 1.506,-1.007 1.357,-0.848 2.567,-1.24 3.6,-1.322 -1.657,1.027 -3.824,1.936 -5.106,2.329 m 0.888,-6.936 c -1.525,0 -3.129,0.348 -4.562,1.189 -0.238,0.141 -0.317,0.446 -0.178,0.684 0.139,0.24 0.446,0.317 0.684,0.179 3.568,-2.095 8.179,-0.633 9.128,0.893 0.11,0.178 0.211,0.406 0.147,0.671 -1.411,-0.15 -3.147,0.224 -5.131,1.465 -2.545,1.591 -2.741,2.064 -2.725,2.443 0.01,0.223 0.137,0.419 0.341,0.523 0.995,0.505 5.505,-1.574 7.385,-2.809 0.246,-0.162 0.453,-0.337 0.621,-0.523 0.832,0.202 1.475,0.632 1.903,1.146 0.294,0.352 0.49,0.737 0.588,1.122 C 5.532,-4.212 5.465,-4.22 5.398,-4.227 3.8,-4.388 2.196,-3.701 0.487,-2.122 c -1.174,1.085 -1.63,1.833 -1.478,2.426 0.049,0.188 0.207,0.525 0.719,0.653 1.383,0.344 4.797,-1.111 6.193,-2.642 0.315,-0.343 0.528,-0.749 0.642,-1.183 1.305,0.613 2.685,1.988 4.319,4.271 0.161,0.225 0.472,0.277 0.698,0.116 C 11.804,1.358 11.856,1.046 11.695,0.821 9.806,-1.818 8.231,-3.314 6.649,-3.925 6.587,-4.629 6.296,-5.345 5.78,-5.965 5.273,-6.572 4.534,-7.094 3.599,-7.376 c 0.099,-0.45 0.009,-0.926 -0.28,-1.392 -0.843,-1.357 -3.261,-2.417 -5.921,-2.417"
         style="fill:#2b2b2b;fill-opacity:1;fill-rule:nonzero;stroke:none"
         id="path184" />
    </g>
    <g
       style="fill:#1a1c20;fill-opacity:1"
       id="g186"
       transform="matrix(0.35277777,0,0,-0.35277777,50.616176,48.947643)">
      <path
         d="M 0,0 25.959,45.567 33.203,6.031 Z M 78.848,14.323 63.266,11.493 49.12,88.705 19.056,83.244 -29.933,-3.755 l 5.26,-28.708 62.837,11.414 4.303,-23.48 30.063,5.461 -4.302,23.48 15.582,2.831 z"
         style="fill:#1a1c20;fill-opacity:1;fill-rule:nonzero;stroke:none"
         id="path188" />
    </g>
    <g
       style="fill:#1a1c20;fill-opacity:1"
       id="g190"
       transform="matrix(0.35277777,0,0,-0.35277777,122.70159,15.801702)">
      <path
         d="m 0,0 c -0.582,5.334 -1.647,10.073 -3.197,14.218 -1.55,4.144 -3.88,8.208 -6.99,12.189 -3.11,3.982 -7.345,7.437 -12.704,10.366 -5.36,2.928 -12.434,4.967 -21.223,6.113 -18.292,2.383 -32.551,-0.865 -42.781,-9.74 -10.232,-8.877 -16.963,-25.881 -20.198,-51.012 -1.316,-10.221 -1.642,-19.669 -0.977,-28.345 0.663,-8.675 2.255,-15.652 4.778,-20.933 3.451,-7.419 8.335,-13.343 14.649,-17.771 6.313,-4.429 14.962,-7.36 25.95,-8.792 19.596,-2.553 34.119,1.209 43.569,11.288 9.448,10.077 15.717,27.111 18.805,51.101 C 1.059,-20.617 1.164,-10.178 0,0"
         style="fill:#1a1c20;fill-opacity:1;fill-rule:nonzero;stroke:none"
         id="path192" />
    </g>
    <g
       style="fill:#a6a6a6;fill-opacity:1"
       id="g194"
       transform="matrix(0.35277777,0,0,-0.35277777,103.76984,45.237973)">
      <path
         d="m 0,0 c -2.405,0.082 -4.964,0.299 -7.607,0.644 -9.155,1.191 -16.238,3.508 -21.054,6.887 -4.751,3.332 -8.346,7.716 -10.992,13.406 l -0.049,0.103 c -1.923,4.023 -3.179,9.754 -3.735,17.028 -0.605,7.888 -0.296,16.67 0.919,26.103 3.569,27.721 10.941,39.287 16.497,44.107 6.478,5.62 15.22,8.16 26.729,7.766 2.358,-0.08 4.855,-0.291 7.422,-0.625 7.386,-0.962 13.23,-2.597 17.37,-4.857 4.009,-2.192 7.142,-4.71 9.31,-7.486 2.404,-3.076 4.205,-6.194 5.354,-9.268 1.223,-3.271 2.086,-7.16 2.565,-11.558 C 43.794,72.94 43.694,63.296 42.436,53.528 39.663,31.989 34.307,16.855 26.516,8.547 20.737,2.382 12.064,-0.414 0.002,-0.001 0.001,0 0,0 0,0"
         style="fill:#a6a6a6;fill-opacity:1;fill-rule:nonzero;stroke:none"
         id="path196" />
    </g>
    <g
       style="fill:#3f3f3f;fill-opacity:1"
       id="g198"
       transform="matrix(0.35277777,0,0,-0.35277777,101.64456,20.234848)">
      <path
         d="m 0,0 c -8.295,0.284 -14.791,7.24 -14.507,15.536 0.285,8.305 7.241,14.8 15.537,14.516 C 9.325,29.768 15.82,22.812 15.536,14.507 15.251,6.211 8.295,-0.284 0,0 m 25.595,12.271 0.13,3.788 -2.326,0.759 c -0.095,1.294 -0.312,2.573 -0.62,3.804 l 1.971,1.453 -1.339,3.558 -2.438,-0.196 c -0.581,1.15 -1.264,2.245 -2.029,3.271 l 1.263,2.108 -2.597,2.77 -2.179,-1.115 c -0.982,0.834 -2.017,1.59 -3.125,2.258 l 0.353,2.419 -3.458,1.57 -1.585,-1.858 c -1.207,0.392 -2.458,0.686 -3.751,0.879 l -0.59,2.372 -3.798,0.13 -0.75,-2.325 c -1.304,-0.105 -2.572,-0.312 -3.803,-0.62 l -1.464,1.961 -3.557,-1.329 0.196,-2.439 c -1.151,-0.591 -2.245,-1.273 -3.272,-2.039 l -2.098,1.263 -2.78,-2.586 1.116,-2.19 c -0.834,-0.971 -1.59,-2.016 -2.248,-3.125 l -2.419,0.364 -1.58,-3.458 1.867,-1.585 c -0.391,-1.208 -0.695,-2.468 -0.879,-3.752 l -2.382,-0.599 -0.13,-3.788 2.336,-0.761 c 0.095,-1.303 0.312,-2.572 0.62,-3.802 l -1.971,-1.454 1.339,-3.558 2.438,0.196 c 0.581,-1.15 1.264,-2.244 2.029,-3.271 l -1.263,-2.108 2.597,-2.77 2.18,1.116 c 0.972,-0.834 2.016,-1.591 3.124,-2.259 l -0.363,-2.419 3.458,-1.569 1.595,1.856 c 1.207,-0.391 2.458,-0.684 3.752,-0.878 l 0.589,-2.373 3.798,-0.129 0.75,2.326 c 1.304,0.105 2.572,0.311 3.803,0.62 l 1.454,-1.961 3.558,1.329 -0.187,2.438 c 1.151,0.59 2.235,1.274 3.272,2.039 l 2.098,-1.263 2.78,2.587 -1.116,2.188 c 0.834,0.973 1.59,2.018 2.249,3.125 l 2.419,-0.363 1.579,3.459 -1.867,1.585 c 0.392,1.207 0.695,2.457 0.879,3.752 z"
         style="fill:#3f3f3f;fill-opacity:1;fill-rule:nonzero;stroke:none"
         id="path200" />
    </g>
    <g
       style="fill:#000000;fill-opacity:1"
       transform="matrix(0.35277777,0,0,-0.35277777,14.952531,141.74647)"
       id="g202">
      <g
         style="fill:#000000;fill-opacity:1"
         id="g204" />
      <g
         style="fill:#000000;fill-opacity:1"
         id="g216">
        <g
           style="fill:#000000;fill-opacity:1"
           clip-path="url(#clipPath208)"
           opacity="0.300003"
           id="g214">
          <g
             style="fill:#000000;fill-opacity:1"
             transform="translate(274.2485,288.126)"
             id="g212">
            <path
               d="M 0,0 C -1.186,-2.16 -3.905,-2.956 -6.064,-1.771 -8.223,-0.584 -9.008,2.134 -7.822,4.293 -6.637,6.452 -3.93,7.237 -1.77,6.052 0.389,4.866 1.186,2.159 0,0 m 12.874,-0.991 0.275,2.553 -1.535,0.626 c -0.006,0.877 -0.081,1.747 -0.227,2.594 l 1.399,0.889 -0.711,2.47 -1.662,-0.014 c -0.335,0.808 -0.73,1.582 -1.196,2.311 l 0.947,1.361 -1.605,1.997 -1.531,-0.638 C 6.416,13.765 5.757,14.325 5.037,14.829 L 5.408,16.456 3.157,17.691 1.981,16.503 C 1.174,16.847 0.34,17.098 -0.496,17.29 l -0.283,1.636 -2.553,0.286 -0.626,-1.534 c -0.878,-0.006 -1.736,-0.093 -2.595,-0.24 l -0.887,1.413 -2.471,-0.724 0.013,-1.662 c -0.796,-0.335 -1.57,-0.731 -2.311,-1.196 l -1.36,0.96 -1.998,-1.606 0.639,-1.531 c -0.595,-0.613 -1.168,-1.272 -1.672,-1.991 l -1.615,0.36 -1.235,-2.252 1.177,-1.163 c -0.332,-0.82 -0.594,-1.643 -0.787,-2.49 l -1.636,-0.272 -0.275,-2.553 1.534,-0.637 c -0.006,-0.866 0.082,-1.736 0.228,-2.583 l -1.411,-0.888 0.723,-2.471 1.661,0.002 c 0.336,-0.796 0.731,-1.57 1.197,-2.3 l -0.959,-1.359 1.604,-2.01 1.544,0.65 c 0.611,-0.606 1.271,-1.167 1.991,-1.671 l -0.372,-1.626 2.252,-1.236 1.175,1.177 c 0.808,-0.332 1.642,-0.584 2.478,-0.775 l 0.283,-1.637 2.553,-0.286 0.626,1.535 c 0.866,0.005 1.735,0.092 2.594,0.238 l 0.888,-1.411 2.459,0.724 -10e-4,1.661 c 0.795,0.336 1.569,0.731 2.311,1.196 l 1.348,-0.959 2.009,1.605 -0.649,1.532 c 0.606,0.611 1.166,1.271 1.683,1.99 l 1.614,-0.359 1.236,2.251 -1.177,1.164 c 0.332,0.819 0.582,1.642 0.775,2.478 z"
               style="fill:#000000;fill-opacity:1;fill-rule:nonzero;stroke:none"
               id="path210" />
          </g>
        </g>
      </g>
    </g>
    <g
       style="fill:#1b1b1b;fill-opacity:1"
       id="g218"
       transform="matrix(0.35277777,0,0,-0.35277777,114.28015,28.601255)">
      <path
         d="m 0,0 c -3.936,0.135 -7.01,3.438 -6.875,7.363 0.134,3.936 3.427,7.011 7.363,6.876 C 4.424,14.104 7.498,10.812 7.364,6.875 7.229,2.951 3.936,-0.135 0,0 m 19.731,9.624 -2.981,2.059 c 0,0.002 -0.001,0.005 -0.001,0.006 -0.295,1.083 -0.702,2.126 -1.199,3.106 l 0.763,2.997 -4.323,4.63 -3.044,-0.557 c -0.942,0.563 -1.954,1.039 -3.013,1.407 -0.002,0.001 -0.005,0.001 -0.007,0.002 l -1.851,3.117 -6.331,0.216 -2.059,-2.98 -0.011,-0.003 c -1.082,-0.295 -2.123,-0.701 -3.102,-1.197 l -2.996,0.763 -4.63,-4.324 0.556,-3.037 c -0.001,-0.001 -0.001,-0.002 -0.002,-0.003 -0.574,-0.953 -1.04,-1.965 -1.408,-3.024 l -3.115,-1.85 -0.217,-6.332 2.983,-2.059 c 0.295,-1.091 0.689,-2.131 1.196,-3.12 0,0 0,0 0,-0.001 l -0.761,-2.987 4.323,-4.631 3.025,0.554 c 0.955,-0.564 1.968,-1.042 3.04,-1.41 0.001,0 0.002,-10e-4 0.003,-10e-4 l 1.847,-3.111 6.331,-0.217 2.057,2.978 c 1.095,0.295 2.138,0.701 3.128,1.199 h 10e-4 l 2.982,-0.759 4.63,4.323 -0.555,3.038 c 0.574,0.953 1.039,1.966 1.407,3.025 h 0.001 l 3.116,1.852 z"
         style="fill:#1b1b1b;fill-opacity:1;fill-rule:nonzero;stroke:none"
         id="path220" />
    </g>
    <g
       style="fill:#3f3f3f;fill-opacity:1"
       id="g222"
       transform="matrix(0.35277777,0,0,-0.35277777,127.11974,5.0936616)">
      <path
         d="M 0,0 C -0.26,1.456 0.711,2.845 2.162,3.104 3.618,3.365 5.007,2.398 5.267,0.942 5.528,-0.513 4.561,-1.901 3.105,-2.162 1.653,-2.422 0.26,-1.455 0,0 m 5.088,-6.486 0.521,1.256 c 0.001,0.001 0.002,0.001 0.003,0.001 0.374,0.194 0.725,0.425 1.045,0.685 l 1.161,-0.045 1.36,1.953 -0.445,1.074 c 0.133,0.39 0.228,0.798 0.28,1.217 0,0 0,0.002 0,0.002 L 10.011,0.583 9.593,2.925 8.336,3.445 C 8.335,3.447 8.334,3.448 8.334,3.449 8.14,3.823 7.909,4.174 7.65,4.494 L 7.694,5.654 5.742,7.014 4.67,6.57 c 0,0 0,10e-4 -0.001,10e-4 C 4.274,6.707 3.866,6.798 3.448,6.85 L 2.523,7.848 0.181,7.429 -0.34,6.171 C -0.717,5.978 -1.068,5.75 -1.391,5.486 v 0 L -2.549,5.53 -3.908,3.578 -3.467,2.512 C -3.599,2.116 -3.694,1.707 -3.745,1.284 c 0,0 0,-0.001 0,-0.001 l -0.997,-0.924 0.419,-2.341 1.256,-0.521 c 0.194,-0.379 0.425,-0.729 0.686,-1.054 0,-10e-4 0,-10e-4 0,-10e-4 l -0.044,-1.154 1.953,-1.36 1.071,0.444 c 0.395,-0.137 0.804,-0.227 1.222,-0.279 v 0 l 0.925,-0.998 z"
         style="fill:#3f3f3f;fill-opacity:1;fill-rule:nonzero;stroke:none"
         id="path224" />
    </g>
    <g
       style="fill:#3f3f3f;fill-opacity:1"
       id="g226"
       transform="matrix(0.35277777,0,0,-0.35277777,119.23625,5.0413094)">
      <path
         d="M 0,0 -0.764,0.645 C 0.564,2.217 2.447,4.209 5.244,5.674 L 5.708,4.787 C 2.726,3.227 0.816,0.965 0,0"
         style="fill:#3f3f3f;fill-opacity:1;fill-rule:nonzero;stroke:none"
         id="path228" />
    </g>
    <g
       style="fill:#3f3f3f;fill-opacity:1"
       id="g230"
       transform="matrix(0.35277777,0,0,-0.35277777,122.05262,3.0348858)">
      <path
         d="M 0,0 -0.395,0.92 C 3.388,2.54 7.34,3.172 11.344,2.8 L 11.251,1.804 C 7.412,2.17 3.627,1.556 0,0"
         style="fill:#3f3f3f;fill-opacity:1;fill-rule:nonzero;stroke:none"
         id="path232" />
    </g>
    <g
       style="fill:#3f3f3f;fill-opacity:1"
       id="g234"
       transform="matrix(0.35277777,0,0,-0.35277777,121.3865,5.4753672)">
      <path
         d="M 0,0 -0.826,0.562 C 1.228,3.579 5.287,6.206 9.045,6.951 L 9.239,5.971 C 5.718,5.271 1.918,2.816 0,0"
         style="fill:#3f3f3f;fill-opacity:1;fill-rule:nonzero;stroke:none"
         id="path236" />
    </g>
    <g
       id="g238"
       transform="matrix(0.35277777,0,0,-0.35277777,94.103762,29.797419)">
      <path
         d="m 0,0 c -1.818,-2.743 -2.458,-6.031 -1.803,-9.258 0.655,-3.225 2.527,-6.004 5.271,-7.822 5.667,-3.754 13.329,-2.201 17.081,3.462 3.754,5.664 2.201,13.33 -3.462,17.087 C 11.425,7.222 3.76,5.666 0,0 m 10.258,-20.128 c -2.528,0 -5.082,0.716 -7.342,2.214 -2.967,1.966 -4.991,4.97 -5.699,8.457 -0.709,3.488 -0.016,7.043 1.95,10.01 v 0 c 4.065,6.125 12.352,7.806 18.473,3.75 6.122,-4.063 7.801,-12.35 3.743,-18.474 -2.56,-3.863 -6.803,-5.957 -11.125,-5.957 M 5.34,-23.363 c 0.048,0 0.095,-0.007 0.141,-0.021 1.071,-0.314 2.185,-0.522 3.311,-0.616 0.121,-0.01 0.234,-0.063 0.318,-0.15 l 2.036,-2.099 5.901,1.197 1.06,2.733 c 0.044,0.113 0.128,0.207 0.235,0.262 1.003,0.523 1.95,1.145 2.816,1.851 0.091,0.074 0.194,0.125 0.323,0.112 l 3.471,-0.052 3.326,5.019 -1.404,3.184 c -0.047,0.107 -0.055,0.228 -0.022,0.341 0.316,1.091 0.523,2.206 0.616,3.311 0.01,0.121 0.063,0.233 0.15,0.318 l 2.099,2.036 -1.196,5.902 -2.728,1.057 c -0.116,0.045 -0.21,0.131 -0.266,0.243 -0.52,1 -1.143,1.943 -1.851,2.805 -0.075,0.092 -0.115,0.207 -0.114,0.326 l 0.054,3.473 -5.02,3.327 -3.176,-1.4 C 15.313,9.749 15.192,9.741 15.079,9.772 c -1.084,0.316 -2.202,0.523 -3.323,0.617 -0.12,0.009 -0.233,0.063 -0.317,0.149 L 9.406,12.635 3.504,11.438 2.447,8.711 C 2.403,8.598 2.319,8.504 2.211,8.448 1.215,7.93 0.267,7.306 -0.605,6.594 -0.697,6.52 -0.818,6.467 -0.931,6.479 L -4.4,6.533 -7.727,1.513 -6.325,-1.666 c 0.06,-0.137 0.056,-0.293 -0.01,-0.426 -0.282,-0.999 -0.489,-2.114 -0.582,-3.233 -0.01,-0.12 -0.063,-0.233 -0.15,-0.318 l -2.099,-2.035 1.197,-5.901 2.725,-1.057 c 0.122,-0.047 0.22,-0.139 0.274,-0.257 0.518,-0.992 1.139,-1.933 1.844,-2.791 0.075,-0.091 0.117,-0.209 0.115,-0.327 l -0.053,-3.471 5.019,-3.329 3.184,1.405 c 0.064,0.028 0.132,0.043 0.201,0.043 m 5.637,-3.93 c -0.134,0 -0.264,0.054 -0.359,0.152 l -2.097,2.162 c -1.067,0.1 -2.124,0.296 -3.145,0.585 l -3.268,-1.441 c -0.155,-0.071 -0.335,-0.053 -0.478,0.04 l -5.475,3.63 c -0.142,0.095 -0.226,0.254 -0.223,0.425 l 0.054,3.563 c -0.665,0.828 -1.258,1.727 -1.766,2.677 l -2.805,1.088 c -0.159,0.061 -0.276,0.199 -0.31,0.366 l -1.305,6.438 c -0.034,0.167 0.02,0.339 0.142,0.459 l 2.161,2.095 c 0.1,1.063 0.296,2.12 0.584,3.15 l -1.439,3.263 c -0.069,0.157 -0.054,0.336 0.04,0.479 l 3.629,5.475 c 0.094,0.142 0.228,0.23 0.425,0.224 l 3.561,-0.055 c 0.836,0.668 1.736,1.261 2.679,1.765 l 1.088,2.807 c 0.062,0.159 0.201,0.275 0.367,0.309 l 6.438,1.306 c 0.167,0.032 0.339,-0.021 0.458,-0.142 l 2.094,-2.159 c 1.064,-0.099 2.123,-0.297 3.153,-0.585 l 3.263,1.439 c 0.155,0.068 0.335,0.052 0.478,-0.041 L 24.396,8.552 C 24.538,8.457 24.622,8.298 24.62,8.127 L 24.565,4.562 c 0.666,-0.83 1.259,-1.728 1.765,-2.675 l 2.807,-1.089 c 0.159,-0.062 0.275,-0.199 0.309,-0.366 l 1.305,-6.438 c 0.034,-0.167 -0.02,-0.34 -0.142,-0.459 l -2.162,-2.097 c -0.098,-1.05 -0.295,-2.106 -0.585,-3.143 l 1.442,-3.269 c 0.069,-0.156 0.053,-0.337 -0.041,-0.478 l -3.629,-5.475 C 25.54,-21.068 25.391,-21.14 25.21,-21.15 l -3.563,0.053 c -0.83,-0.662 -1.729,-1.253 -2.675,-1.758 l -1.091,-2.813 c -0.062,-0.159 -0.2,-0.275 -0.367,-0.31 l -6.437,-1.305 c -0.034,-0.007 -0.067,-0.01 -0.1,-0.01"
         style="fill:#000000;fill-opacity:1;fill-rule:nonzero;stroke:none"
         id="path240" />
    </g>
    <g
       style="fill:#1a1c20;fill-opacity:1"
       id="g242"
       transform="matrix(0.35277777,0,0,-0.35277777,137.15747,43.297342)">
      <path
         d="M 0,0 38.758,35.328 33.443,-4.514 Z M 79.419,-10.718 63.724,-8.6 74.104,69.209 43.823,73.295 -29.63,5.669 l -3.859,-28.93 63.291,-8.542 -3.156,-23.662 30.281,-4.086 3.156,23.661 15.695,-2.117 z"
         style="fill:#1a1c20;fill-opacity:1;fill-rule:nonzero;stroke:none"
         id="path244" />
    </g>
    <g
       style="fill:#949494;fill-opacity:1"
       id="g246"
       transform="matrix(0.35277777,0,0,-0.35277777,153.99417,64.044062)">
      <path
         d="m 0,0 c -0.03,0 -0.06,0.003 -0.09,0.008 -0.272,0.05 -0.452,0.31 -0.402,0.582 l 23.326,127.93 c 0.049,0.27 0.312,0.44 0.582,0.402 0.271,-0.05 0.451,-0.311 0.401,-0.582 L 0.491,0.41 C 0.447,0.169 0.237,0 0,0"
         style="fill:#949494;fill-opacity:1;fill-rule:nonzero;stroke:none"
         id="path248" />
    </g>
    <g
       style="fill:#949494;fill-opacity:1"
       id="g250"
       transform="matrix(0.35277777,0,0,-0.35277777,161.29579,19.463147)">
      <path
         d="m 0,0 c -0.016,-0.452 -0.395,-0.806 -0.847,-0.791 -0.452,0.016 -0.807,0.395 -0.791,0.848 0.015,0.452 0.395,0.806 0.847,0.791 C -0.339,0.832 0.015,0.452 0,0"
         style="fill:#949494;fill-opacity:1;fill-rule:nonzero;stroke:none"
         id="path252" />
    </g>
    <g
       style="fill:#949494;fill-opacity:1"
       id="g254"
       transform="matrix(0.35277777,0,0,-0.35277777,160.12016,25.566485)">
      <path
         d="m 0,0 c -0.016,-0.452 -0.395,-0.806 -0.847,-0.791 -0.452,0.016 -0.807,0.395 -0.791,0.848 0.015,0.452 0.395,0.806 0.847,0.791 C -0.339,0.832 0.015,0.452 0,0"
         style="fill:#949494;fill-opacity:1;fill-rule:nonzero;stroke:none"
         id="path256" />
    </g>
    <g
       style="fill:#949494;fill-opacity:1"
       id="g258"
       transform="matrix(0.35277777,0,0,-0.35277777,158.94453,31.669822)">
      <path
         d="m 0,0 c -0.015,-0.452 -0.395,-0.806 -0.847,-0.791 -0.452,0.016 -0.807,0.395 -0.791,0.848 0.015,0.452 0.395,0.805 0.847,0.791 C -0.339,0.832 0.016,0.452 0,0"
         style="fill:#949494;fill-opacity:1;fill-rule:nonzero;stroke:none"
         id="path260" />
    </g>
    <g
       style="fill:#eeeeee;fill-opacity:1"
       id="g262"
       transform="matrix(0.35277777,0,0,-0.35277777,156.63278,38.023244)">
      <path
         d="m 0,0 c -0.016,-0.453 -0.395,-0.807 -0.847,-0.791 -0.453,0.016 -0.807,0.395 -0.791,0.847 0.015,0.452 0.395,0.806 0.847,0.791 C -0.339,0.831 0.015,0.452 0,0"
         style="fill:#eeeeee;fill-opacity:1;fill-rule:nonzero;stroke:none"
         id="path264" />
    </g>
    <g
       style="fill:#949494;fill-opacity:1"
       id="g266"
       transform="matrix(0.35277777,0,0,-0.35277777,156.59323,43.876462)">
      <path
         d="m 0,0 c -0.015,-0.452 -0.395,-0.807 -0.847,-0.791 -0.452,0.016 -0.806,0.395 -0.791,0.848 0.016,0.452 0.395,0.806 0.847,0.791 C -0.339,0.832 0.016,0.452 0,0"
         style="fill:#949494;fill-opacity:1;fill-rule:nonzero;stroke:none"
         id="path268" />
    </g>
    <g
       style="fill:#949494;fill-opacity:1"
       id="g270"
       transform="matrix(0.35277777,0,0,-0.35277777,155.41767,49.9798)">
      <path
         d="m 0,0 c -0.016,-0.452 -0.395,-0.807 -0.847,-0.791 -0.452,0.016 -0.807,0.395 -0.791,0.848 0.015,0.452 0.395,0.806 0.847,0.791 C -0.339,0.832 0.015,0.452 0,0"
         style="fill:#949494;fill-opacity:1;fill-rule:nonzero;stroke:none"
         id="path272" />
    </g>
    <g
       style="fill:#949494;fill-opacity:1"
       id="g274"
       transform="matrix(0.35277777,0,0,-0.35277777,154.24204,56.083137)">
      <path
         d="m 0,0 c -0.016,-0.452 -0.395,-0.807 -0.847,-0.791 -0.452,0.016 -0.806,0.395 -0.791,0.848 0.016,0.452 0.395,0.806 0.847,0.791 C -0.339,0.832 0.015,0.452 0,0"
         style="fill:#949494;fill-opacity:1;fill-rule:nonzero;stroke:none"
         id="path276" />
    </g>
    <g
       style="fill:#949494;fill-opacity:1"
       id="g278"
       transform="matrix(0.35277777,0,0,-0.35277777,153.0664,62.186475)">
      <path
         d="m 0,0 c -0.015,-0.452 -0.395,-0.807 -0.847,-0.791 -0.452,0.016 -0.806,0.395 -0.791,0.848 0.016,0.452 0.395,0.805 0.847,0.791 C -0.339,0.832 0.015,0.452 0,0"
         style="fill:#949494;fill-opacity:1;fill-rule:nonzero;stroke:none"
         id="path280" />
    </g>
    <g
       style="fill:#949494;fill-opacity:1"
       id="g282"
       transform="matrix(0.35277777,0,0,-0.35277777,156.34371,38.190002)">
      <path
         d="m 0,0 c -0.23,0 -0.438,0.16 -0.488,0.396 -0.058,0.269 0.113,0.535 0.384,0.593 L 2.379,1.522 C 2.653,1.576 2.915,1.409 2.973,1.138 3.031,0.868 2.859,0.603 2.589,0.544 L 0.105,0.011 C 0.07,0.004 0.035,0 0,0"
         style="fill:#949494;fill-opacity:1;fill-rule:nonzero;stroke:none"
         id="path284" />
    </g>
    <g
       style="fill:#949494;fill-opacity:1"
       id="g286"
       transform="matrix(0.35277777,0,0,-0.35277777,159.26852,34.939896)">
      <path
         d="M 0,0 C 0,0 -2.238,-5.829 -2.991,-9.36 -3.744,-12.893 -3.79,-20.785 -3.79,-20.785"
         style="fill:#949494;fill-opacity:1;fill-rule:nonzero;stroke:none"
         id="path288" />
    </g>
    <g
       style="fill:#949494;fill-opacity:1"
       id="g290"
       transform="matrix(0.35277777,0,0,-0.35277777,157.93156,42.448841)">
      <path
         d="m 0,0 h -0.003 c -0.276,0.002 -0.498,0.227 -0.497,0.503 0.002,0.324 0.054,7.984 0.81,11.526 0.753,3.53 2.921,9.196 3.013,9.436 0.099,0.257 0.387,0.385 0.646,0.287 C 4.227,21.653 4.356,21.363 4.257,21.106 4.234,21.048 2.024,15.272 1.288,11.82 0.554,8.378 0.5,0.575 0.5,0.497 0.499,0.222 0.275,0 0,0"
         style="fill:#949494;fill-opacity:1;fill-rule:nonzero;stroke:none"
         id="path292" />
    </g>
    <g
       style="fill:#a6a6a6;fill-opacity:1"
       id="g302"
       transform="matrix(0.35277777,0,0,-0.35277777,93.428616,72.898643)">
      <path
         d="M 0,0 C 1.389,22.402 -1.166,63.126 40.945,57.735 86.08,51.958 73.167,-0.82 73.167,-0.82 Z"
         style="fill:#a6a6a6;fill-opacity:1;fill-rule:nonzero;stroke:none"
         id="path304" />
    </g>
    <g
       id="g306"
       transform="matrix(0.35277777,0,0,-0.35277777,110.16334,61.665916)">
      <path
         d="m 0,0 c 0,-10.148 -8.227,-18.375 -18.375,-18.375 -10.149,0 -18.376,8.227 -18.376,18.375 0,10.148 8.227,18.375 18.376,18.375 C -8.227,18.375 0,10.148 0,0"
         style="fill:#ffffff;fill-opacity:1;fill-rule:nonzero;stroke:none"
         id="path308" />
    </g>
    <g
       style="fill:#ababab;fill-opacity:1"
       id="g310"
       transform="matrix(0.35277777,0,0,-0.35277777,104.5324,55.193608)">
      <path
         d="M 0,0 C -8.704,1.486 -18.01,-4.93 -18.927,-11.43 L 15.58,-14.603 C 14.364,-7.193 6.906,-1.18 0,0"
         style="fill:#ababab;fill-opacity:1;fill-rule:nonzero;stroke:none"
         id="path312" />
    </g>
    <g
       style="fill:#353535;fill-opacity:1"
       id="g314"
       transform="matrix(0.35277777,0,0,-0.35277777,108.6418,61.504697)">
      <path
         d="m 0,0 c -0.247,-4.804 -2.865,-8.574 -5.848,-8.421 -2.983,0.153 -5.201,4.172 -4.954,8.976 0.246,4.803 2.864,8.574 5.847,8.421 C -1.972,8.823 0.247,4.805 0,0"
         style="fill:#353535;fill-opacity:1;fill-rule:nonzero;stroke:none"
         id="path316" />
    </g>
    <path
       id="path320"
       style="fill:#ababab;fill-opacity:1;fill-rule:nonzero;stroke:none;stroke-width:0.352778"
       d="m 103.68097,55.536402 c -3.37996,0 -6.129514,2.74955 -6.129514,6.129514 0,3.379964 2.749554,6.129514 6.129514,6.129514 3.37996,0 6.12951,-2.74955 6.12951,-6.129514 0,-3.379964 -2.74955,-6.129514 -6.12951,-6.129514 m 0,12.964583 c -3.769078,0 -6.835069,-3.065992 -6.835069,-6.835069 0,-3.769078 3.065991,-6.83507 6.835069,-6.83507 3.76908,0 6.83507,3.065992 6.83507,6.83507 0,3.769077 -3.06599,6.835069 -6.83507,6.835069" />
    <g
       transform="matrix(0.35277777,0,0,-0.35277777,14.952531,141.74647)"
       id="g322">
      <g
         id="g324" />
      <g
         id="g336">
        <g
           clip-path="url(#clipPath328)"
           opacity="0.300003"
           id="g334">
          <g
             transform="translate(290.4854,195.7227)"
             id="g332">
            <path
               d="m 0,0 c -0.039,0 -0.078,0.005 -0.118,0.014 -0.268,0.064 -0.433,0.335 -0.369,0.603 0.033,0.135 3.219,13.695 -0.09,27.404 -0.065,0.268 0.1,0.538 0.369,0.603 0.265,0.061 0.538,-0.1 0.603,-0.369 C 3.763,14.305 0.519,0.521 0.485,0.383 0.43,0.153 0.226,0 0,0"
               style="fill:#ffffff;fill-opacity:1;fill-rule:nonzero;stroke:none"
               id="path330" />
          </g>
        </g>
      </g>
    </g>
    <g
       transform="matrix(0.35277777,0,0,-0.35277777,14.952531,141.74647)"
       id="g338">
      <g
         id="g340" />
      <g
         id="g352">
        <g
           clip-path="url(#clipPath344)"
           opacity="0.300003"
           id="g350">
          <g
             transform="translate(287.6982,231.2412)"
             id="g348">
            <path
               d="m 0,0 c -0.19,0 -0.371,0.108 -0.455,0.292 -1.286,2.806 -2.881,5.382 -4.742,7.657 -0.175,0.214 -0.143,0.529 0.071,0.703 0.213,0.176 0.528,0.145 0.704,-0.07 C -2.508,6.241 -0.867,3.592 0.454,0.708 0.569,0.457 0.459,0.16 0.208,0.046 0.14,0.015 0.069,0 0,0"
               style="fill:#ffffff;fill-opacity:1;fill-rule:nonzero;stroke:none"
               id="path346" />
          </g>
        </g>
      </g>
    </g>
    <g
       style="fill:#a6a6a6;fill-opacity:1"
       id="g354"
       transform="matrix(0.35277777,0,0,-0.35277777,60.367342,109.96754)">
      <path
         d="m 0,0 c -0.125,0 -0.248,0.001 -0.372,0.005 -2.76,0.076 -4.937,2.375 -4.861,5.136 0.075,2.759 2.349,4.894 5.135,4.86 C -0.066,10 -0.034,10 -0.002,10 c 2.889,0 9.839,3.51 24.378,26.43 0.782,1.23 2.061,2.059 3.504,2.269 1.445,0.205 2.905,-0.222 4.005,-1.179 C 49.826,21.877 68.838,12.14 69.028,12.043 71.49,10.793 72.472,7.783 71.223,5.322 69.973,2.86 66.964,1.875 64.503,3.126 63.748,3.509 47.13,12.006 29.705,26.272 17.52,7.953 8.477,0 0,0"
         style="fill:#a6a6a6;fill-opacity:1;fill-rule:nonzero;stroke:none"
         id="path356" />
    </g>
    <g
       style="fill:#a6a6a6;fill-opacity:1"
       id="g358"
       transform="matrix(0.35277777,0,0,-0.35277777,71.280699,96.414527)">
      <path
         d="m 0,0 c -0.142,0 -0.284,0.01 -0.428,0.03 -1.64,0.235 -2.78,1.754 -2.546,3.395 0.711,4.976 -0.17,23.626 -6.474,38.126 -0.575,1.321 -0.129,2.864 1.061,3.676 13.699,9.335 42.877,10.451 44.113,10.494 1.647,0.036 3.044,-1.239 3.102,-2.894 C 38.885,51.172 37.59,49.782 35.935,49.725 35.664,49.715 10.154,48.736 -2.954,41.522 2.63,27.084 3.896,9.086 2.966,2.575 2.752,1.079 1.469,0 0,0"
         style="fill:#a6a6a6;fill-opacity:1;fill-rule:nonzero;stroke:none"
         id="path360" />
    </g>
    <g
       style="fill:#ababab;fill-opacity:1"
       id="g362"
       transform="matrix(0.35277777,0,0,-0.35277777,73.058557,95.044408)">
      <path
         d="m 0,0 c -1.996,4.706 -10.988,4.172 -16.268,0.139 -2.822,-2.156 -6.641,-8.641 -7.043,-10.992 -0.401,-2.35 1.228,-4.48 4.024,-4.238 3.447,0.299 8.181,5.309 8.181,5.309 -3.149,-3.088 0.914,-5.267 6.977,-0.801 C -0.766,-8.106 2.234,-5.27 0,0"
         style="fill:#ababab;fill-opacity:1;fill-rule:nonzero;stroke:none"
         id="path364" />
    </g>
    <g
       style="fill:#2b2b2b;fill-opacity:1"
       id="g366"
       transform="matrix(0.35277777,0,0,-0.35277777,137.26997,65.772108)">
      <path
         d="m 0,0 c 0.451,-0.168 0.961,-0.267 1.437,-0.323 4.983,-0.59 9.382,0.107 10.04,0.728 C 11.307,0.56 10.636,0.987 8.148,1.463 4.866,2.088 1.998,1.265 0,0 m -1.261,-5.622 c 0.086,-0.025 0.173,-0.049 0.258,-0.07 3.531,-0.865 8.298,-1.012 9.933,-0.744 -0.506,0.214 -1.54,0.556 -3.635,1.018 -2.774,0.611 -4.942,0.421 -6.556,-0.204 m -3.334,-6.568 c 0.276,-0.512 0.687,-0.934 1.219,-1.217 2.257,-1.201 6.696,-1.476 8.362,-0.804 0.34,0.138 0.391,0.252 0.391,0.253 0,0.003 -0.055,0.562 -2.501,1.609 -2.803,1.2 -5.038,1.368 -6.831,0.518 -0.219,-0.105 -0.432,-0.224 -0.64,-0.359 m -5.426,-9.331 c -0.045,0 -0.092,0.005 -0.138,0.019 -0.265,0.076 -0.419,0.354 -0.342,0.618 1.332,4.64 2.787,7.475 4.699,9.051 -0.293,0.996 -0.26,2.14 0.153,3.259 0.402,1.089 1.179,2.171 2.362,3.005 -0.579,0.626 -0.795,1.445 -0.59,2.381 0.226,1.042 0.984,2.17 2.136,3.157 -0.453,0.52 -0.564,1.088 -0.567,1.508 C -2.333,4.459 3.199,9.002 9.454,9.855 9.729,9.906 9.98,9.702 10.017,9.428 10.054,9.154 9.863,8.902 9.589,8.865 3.651,8.055 -1.328,3.756 -1.308,1.485 -1.305,1.117 -1.169,0.821 -0.946,0.582 1.305,2.149 4.628,3.157 8.336,2.445 11.405,1.858 12.653,1.21 12.509,0.278 12.237,-1.475 5.7,-1.837 1.319,-1.315 c -0.993,0.118 -1.72,0.352 -2.25,0.645 -1.09,-0.891 -1.787,-1.891 -1.969,-2.73 -0.163,-0.749 0.078,-1.272 0.495,-1.636 1.856,0.957 4.469,1.357 7.916,0.595 4.536,-1.001 4.706,-1.554 4.808,-1.883 0.072,-0.236 0.014,-0.477 -0.161,-0.662 C 9.202,-7.999 2.251,-7.519 -1.24,-6.663 -1.695,-6.552 -2.097,-6.4 -2.443,-6.212 -3.6,-6.94 -4.344,-7.925 -4.71,-8.92 c -0.295,-0.798 -0.362,-1.593 -0.226,-2.303 0.18,0.108 0.364,0.205 0.552,0.295 2.069,0.982 4.571,0.818 7.654,-0.501 2.044,-0.876 3.031,-1.65 3.103,-2.439 0.021,-0.234 -0.025,-0.68 -0.571,-1.042 -1.525,-1.013 -6.87,-0.86 -9.648,0.62 -0.655,0.35 -1.175,0.865 -1.538,1.486 -1.635,-1.493 -2.953,-4.166 -4.157,-8.355 -0.063,-0.22 -0.262,-0.362 -0.48,-0.362"
         style="fill:#2b2b2b;fill-opacity:1;fill-rule:nonzero;stroke:none"
         id="path368" />
    </g>
    <g
       style="fill:#555555;fill-opacity:1"
       id="g370"
       transform="matrix(0.35277777,0,0,-0.35277777,87.810877,109.3784)">
      <path
         d="m 0,0 c 0.658,0.211 0.438,0.847 -0.297,0.847 h -13.539 c -25.781,2.73 -43.794,-0.929 -32.444,-1.791 11.35,-0.864 -0.8,-0.682 -9.088,-3.818 -8.289,-3.135 61.654,-3.926 68.015,0 C 18.514,-1.142 -9.135,-2.928 0,0"
         style="fill:#555555;fill-opacity:1;fill-rule:nonzero;stroke:none"
         id="path372" />
    </g>
    <g
       style="fill:#373737;fill-opacity:1"
       id="g374"
       transform="matrix(0.35277777,0,0,-0.35277777,122.00954,110.78609)">
      <path
         d="m 0,0 -117.802,3.905 -4.889,114.222 139.111,-3.111 z"
         style="fill:#373737;fill-opacity:1;fill-rule:nonzero;stroke:none"
         id="path376" />
    </g>
    <g
       id="g378"
       transform="matrix(0.35277777,0,0,-0.35277777,93.428546,110.01506)">
      <path
         d="M 0,0 C -0.258,0 -0.477,0.197 -0.498,0.459 L -9.941,115.18 c -0.023,0.275 0.182,0.516 0.457,0.539 0.283,0.015 0.517,-0.182 0.54,-0.457 L 0.499,0.541 C 0.521,0.266 0.317,0.024 0.042,0.002 0.027,0.001 0.014,0 0,0"
         style="fill:#1a2e35;fill-opacity:1;fill-rule:nonzero;stroke:none"
         id="path380" />
    </g>
    <g
       style="fill:#6a6a6a;fill-opacity:1"
       id="g382"
       transform="matrix(0.35277777,0,0,-0.35277777,122.00954,110.78609)">
      <path
         d="m 0,0 31.663,4.82 9.972,106.21 -25.215,3.986 z"
         style="fill:#6a6a6a;fill-opacity:1;fill-rule:nonzero;stroke:none"
         id="path384" />
    </g>
    <g
       style="fill:#a6a6a6;fill-opacity:1"
       id="g402"
       transform="matrix(0.35277777,0,0,-0.35277777,84.003347,101.64107)">
      <path
         d="m 0,0 -2.905,67.861 c -0.303,7.083 5.444,12.949 12.532,12.79 l 88.059,-1.968 c 7.354,-0.165 12.911,-6.719 11.871,-14 L 99.794,-3.709 C 98.909,-9.907 93.499,-14.444 87.242,-14.237 l -75.391,2.499 C 5.44,-11.525 0.274,-6.41 0,0"
         style="fill:#a6a6a6;fill-opacity:1;fill-rule:nonzero;stroke:none"
         id="path404" />
    </g>
    <path
       d="m 122.00954,110.78609 11.17,-1.70039 3.5179,-37.468525 -8.89529,-1.406172 z"
       style="opacity:0.199997;fill:#ababab;fill-opacity:1;fill-rule:nonzero;stroke:none;stroke-width:0.352778"
       id="path394" />
    <g
       style="fill:#1a1c20;fill-opacity:1"
       id="g426"
       transform="matrix(0.35277777,0,0,-0.35277777,115.14106,96.999503)">
      <path
         d="m 0,0 c -0.356,0 -0.71,0.144 -0.97,0.427 l -8.56,9.369 -9.237,-8.44 c -0.535,-0.49 -1.365,-0.451 -1.855,0.083 l -8.56,9.37 -9.237,-8.44 c -0.535,-0.489 -1.366,-0.451 -1.854,0.083 l -8.561,9.369 -9.237,-8.44 c -0.256,-0.235 -0.602,-0.359 -0.944,-0.343 -0.348,0.016 -0.675,0.169 -0.91,0.426 l -8.561,9.369 -9.237,-8.439 c -0.534,-0.49 -1.365,-0.451 -1.854,0.083 -0.489,0.535 -0.451,1.366 0.084,1.854 l 10.205,9.325 c 0.535,0.491 1.366,0.452 1.855,-0.083 l 8.56,-9.369 9.237,8.441 c 0.257,0.235 0.601,0.356 0.945,0.342 0.347,-0.015 0.675,-0.169 0.91,-0.425 l 8.56,-9.37 9.237,8.44 c 0.534,0.49 1.365,0.452 1.855,-0.083 l 8.56,-9.369 9.237,8.439 c 0.535,0.491 1.365,0.453 1.854,-0.083 L 0.969,2.198 C 1.458,1.663 1.42,0.832 0.885,0.344 0.633,0.113 0.316,0 0,0"
         style="fill:#1a1c20;fill-opacity:1;fill-rule:nonzero;stroke:none"
         id="path428" />
    </g>
    <g
       style="fill:#373737;fill-opacity:1"
       id="g430"
       transform="matrix(0.35277777,0,0,-0.35277777,59.314336,111.64288)">
      <path
         d="m 0,0 -6.258,2.985 -5.583,27.167 3.03,3.337 z"
         style="fill:#373737;fill-opacity:1;fill-rule:nonzero;stroke:none"
         id="path432" />
    </g>
    <g
       style="fill:#6a6a6a;fill-opacity:1"
       id="g434"
       transform="matrix(0.35277777,0,0,-0.35277777,59.314336,111.64288)">
      <path
         d="m 0,0 8.305,4.852 -7.12,22.383 -9.996,6.254 z"
         style="fill:#6a6a6a;fill-opacity:1;fill-rule:nonzero;stroke:none"
         id="path436" />
    </g>
    <g
       style="fill:#4c4c4c;fill-opacity:1"
       transform="matrix(0.35277777,0,0,-0.35277777,14.952531,141.74647)"
       id="g438">
      <g
         style="fill:#4c4c4c;fill-opacity:1"
         id="g440" />
      <g
         style="fill:#4c4c4c;fill-opacity:1"
         id="g452">
        <g
           style="fill:#4c4c4c;fill-opacity:1"
           clip-path="url(#clipPath444)"
           opacity="0.199997"
           id="g450">
          <g
             style="fill:#4c4c4c;fill-opacity:1"
             transform="translate(125.75,85.333)"
             id="g448">
            <path
               d="m 0,0 8.305,4.852 -7.12,22.383 -9.996,6.254 z"
               style="fill:#4c4c4c;fill-opacity:1;fill-rule:nonzero;stroke:none"
               id="path446" />
          </g>
        </g>
      </g>
    </g>
    <g
       style="fill:#a6a6a6;fill-opacity:1"
       id="g454"
       transform="matrix(0.35277777,0,0,-0.35277777,107.36239,113.38508)">
      <path
         d="m 0,0 c -0.236,0 -0.467,0.004 -0.691,0.01 -2.761,0.076 -4.937,2.375 -4.861,5.136 0.075,2.758 2.356,4.928 5.135,4.86 7.703,-0.252 24.006,4.48 33.319,13.52 0.576,0.559 1.277,0.971 2.046,1.202 15.788,4.738 21.664,-4.834 21.906,-5.245 l -8.607,-5.089 c 0,0 0.033,-0.07 0.115,-0.183 -0.095,0.132 -2.331,3.039 -9.451,1.24 C 27.224,4.783 9.284,0 0,0"
         style="fill:#a6a6a6;fill-opacity:1;fill-rule:nonzero;stroke:none"
         id="path456" />
    </g>
    <g
       style="fill:#373737;fill-opacity:1"
       id="g458"
       transform="matrix(0.35277777,0,0,-0.35277777,107.16681,115.72982)">
      <path
         d="M 0,0 -18.213,1.147 -19.65,34.724 4.827,33.809 Z"
         style="fill:#373737;fill-opacity:1;fill-rule:nonzero;stroke:none"
         id="path460" />
    </g>
    <g
       style="fill:#6a6a6a;fill-opacity:1"
       id="g462"
       transform="matrix(0.35277777,0,0,-0.35277777,107.16681,115.72982)">
      <path
         d="M 0,0 4.257,4.236 6.896,25.173 4.827,33.809 Z"
         style="fill:#6a6a6a;fill-opacity:1;fill-rule:nonzero;stroke:none"
         id="path464" />
    </g>
    <g
       style="fill:#ababab;fill-opacity:1"
       transform="matrix(0.35277777,0,0,-0.35277777,14.952535,141.74647)"
       id="g466">
      <g
         style="fill:#ababab;fill-opacity:1"
         id="g468" />
      <g
         style="fill:#ababab;fill-opacity:1"
         id="g480">
        <g
           style="fill:#ababab;fill-opacity:1"
           clip-path="url(#clipPath472)"
           opacity="0.199997"
           id="g478">
          <g
             style="fill:#ababab;fill-opacity:1"
             transform="translate(261.3948,73.748)"
             id="g476">
            <path
               d="M 0,0 4.257,4.236 6.896,25.173 4.827,33.809 Z"
               style="fill:#ababab;fill-opacity:1;fill-rule:nonzero;stroke:none"
               id="path474" />
          </g>
        </g>
      </g>
    </g>
    <g
       style="fill:#a6a6a6;fill-opacity:1"
       id="g482"
       transform="matrix(0.35277777,0,0,-0.35277777,144.39029,111.24428)">
      <path
         d="m 0,0 c -0.632,0 -1.27,0.199 -1.813,0.611 -10.395,7.901 -24.445,21.926 -29.837,35.457 -0.079,0.198 -0.136,0.404 -0.171,0.614 -2.629,15.632 -5.141,48.541 -5.247,49.934 -0.125,1.652 1.112,3.093 2.764,3.218 1.648,0.121 3.094,-1.112 3.219,-2.765 0.025,-0.336 2.562,-33.566 5.127,-49.073 C -20.58,24.84 -6,11.33 1.818,5.389 3.137,4.386 3.394,2.504 2.391,1.185 1.801,0.408 0.906,0 0,0"
         style="fill:#a6a6a6;fill-opacity:1;fill-rule:nonzero;stroke:none"
         id="path484" />
    </g>
    <g
       style="fill:#2d2d2d;fill-opacity:1"
       id="g486"
       transform="matrix(0.35277777,0,0,-0.35277777,149.28247,111.77895)">
      <path
         d="m 0,0 c -2.319,0 -4.949,1.052 -7.814,3.125 -1.343,0.972 -1.644,2.847 -0.672,4.189 0.972,1.342 2.847,1.643 4.189,0.672 C -1.82,6.193 -0.467,6 0,6 1.657,6 3,4.657 3,3 3,1.343 1.657,0 0,0"
         style="fill:#2d2d2d;fill-opacity:1;fill-rule:nonzero;stroke:none"
         id="path488" />
    </g>
    <g
       style="fill:#ababab;fill-opacity:1"
       id="g490"
       transform="matrix(0.35277777,0,0,-0.35277777,146.82234,110.64657)">
      <path
         d="M 0,0 C 3.21,9.536 16.37,7.651 20.902,6.235 25.433,4.819 29.517,3.038 31.971,1.433 34.426,-0.172 34.465,-2.853 31.192,-4.384 27.156,-6.271 17.031,-4.596 17.031,-4.596 22.272,-6.891 17.021,-10.568 7.826,-6.956 4.833,-5.78 -1.133,-3.493 0,0"
         style="fill:#ababab;fill-opacity:1;fill-rule:nonzero;stroke:none"
         id="path492" />
    </g>
    <g
       style="fill:#a6a6a6;fill-opacity:1"
       id="g494"
       transform="matrix(0.35277777,0,0,-0.35277777,135.5537,82.139762)">
      <path
         d="m 0,0 c -1.191,-8.102 -7.9,-14.076 -13.357,-13.274 -5.458,0.802 -5.685,8.038 -4.494,16.139 1.191,8.103 3.349,14.002 8.807,13.199 C -3.587,15.263 1.191,8.102 0,0"
         style="fill:#a6a6a6;fill-opacity:1;fill-rule:nonzero;stroke:none"
         id="path496" />
    </g>
    <g
       id="g498"
       transform="matrix(0.35277777,0,0,-0.35277777,89.280796,70.441263)">
      <path
         d="m 0,0 c 0,-0.452 -0.367,-0.819 -0.819,-0.819 -0.453,0 -0.82,0.367 -0.82,0.819 0,0.452 0.367,0.819 0.82,0.819 C -0.367,0.819 0,0.452 0,0"
         style="fill:#1a2e35;fill-opacity:1;fill-rule:nonzero;stroke:none"
         id="path500" />
    </g>
    <g
       id="g502"
       transform="matrix(0.35277777,0,0,-0.35277777,91.931568,72.523463)">
      <path
         d="m 0,0 c 0,-0.453 -0.367,-0.82 -0.819,-0.82 -0.453,0 -0.82,0.367 -0.82,0.82 0,0.452 0.367,0.819 0.82,0.819 C -0.367,0.819 0,0.452 0,0"
         style="fill:#1a2e35;fill-opacity:1;fill-rule:nonzero;stroke:none"
         id="path504" />
    </g>
    <g
       id="g506"
       transform="matrix(0.35277777,0,0,-0.35277777,92.25496,106.7095)">
      <path
         d="m 0,0 c 0,-0.453 -0.367,-0.819 -0.819,-0.819 -0.453,0 -0.82,0.366 -0.82,0.819 0,0.452 0.367,0.819 0.82,0.819 C -0.367,0.819 0,0.452 0,0"
         style="fill:#1a2e35;fill-opacity:1;fill-rule:nonzero;stroke:none"
         id="path508" />
    </g>
    <g
       id="g510"
       transform="matrix(0.35277777,0,0,-0.35277777,94.905697,108.79205)">
      <path
         d="m 0,0 c 0,-0.452 -0.367,-0.819 -0.82,-0.819 -0.452,0 -0.819,0.367 -0.819,0.819 0,0.453 0.367,0.82 0.819,0.82 C -0.367,0.82 0,0.453 0,0"
         style="fill:#1a2e35;fill-opacity:1;fill-rule:nonzero;stroke:none"
         id="path512" />
    </g>
    <g
       style="fill:#ffffff;fill-opacity:1"
       id="g522"
       transform="matrix(0.35277777,0,0,-0.35277777,47.940004,108.72696)">
      <path
         d="m 0,0 h -0.002 c -0.002,-0.001 -0.375,-0.19 -0.52,-1.86 -0.146,-1.683 0.159,-2.824 0.934,-3.485 0.175,-0.15 0.376,-0.276 0.599,-0.379 0.282,0.313 0.476,0.663 0.543,1.029 0.268,1.449 -0.422,3.571 -1.196,4.429 C 0.157,-0.042 0.028,0 0,0 m -6.291,-0.868 c -0.006,-0.376 0.028,-1.008 0.177,-2.059 0.203,-1.427 0.73,-2.524 1.519,-3.222 -0.234,2.007 -1.125,4.333 -1.696,5.281 m -5.571,-0.872 c -0.058,-0.154 -0.163,-0.659 0.084,-2.044 0.329,-1.84 1.52,-3.063 2.84,-3.708 -0.007,0.213 -0.046,0.449 -0.117,0.708 -0.785,2.858 -2.278,4.828 -2.807,5.044 m 0.864,-8.278 c -2.379,0 -5.597,1.443 -7.333,3.95 -0.157,0.226 -0.101,0.538 0.126,0.695 0.227,0.158 0.538,0.101 0.696,-0.127 1.866,-2.694 5.979,-4.131 7.805,-3.28 0.192,0.09 0.348,0.203 0.468,0.339 -1.632,0.754 -3.124,2.23 -3.526,4.481 -0.227,1.268 -0.407,2.981 0.639,3.217 1.434,0.322 3.31,-3.147 4.032,-5.776 0.134,-0.486 0.176,-0.936 0.131,-1.342 0.632,-0.173 1.253,-0.218 1.786,-0.141 0.433,0.063 1.049,0.241 1.375,0.745 -1.215,0.821 -2.033,2.269 -2.305,4.19 -0.388,2.734 -0.097,3.211 0.206,3.444 0.197,0.151 0.447,0.18 0.688,0.078 1.069,-0.455 2.365,-4.334 2.613,-6.529 0.027,-0.242 0.027,-0.474 0.002,-0.694 0.409,-0.163 0.861,-0.252 1.349,-0.261 0.867,-0.05 1.724,0.225 2.41,0.629 -0.142,0.088 -0.276,0.187 -0.402,0.295 -1.038,0.886 -1.456,2.303 -1.281,4.331 0.136,1.567 0.493,2.423 1.123,2.693 C -0.175,1.017 0.275,1.108 0.812,0.68 1.892,-0.184 2.9,-2.918 2.538,-4.877 2.462,-5.282 2.288,-5.671 2.035,-6.028 3.87,-6.345 6.452,-5.829 8.679,-5.279 8.946,-5.214 9.218,-5.376 9.284,-5.645 9.351,-5.913 9.187,-6.184 8.919,-6.25 6.209,-6.92 3.292,-7.465 1.231,-6.867 0.315,-7.596 -0.974,-8.038 -2.267,-8.029 c -0.589,0.011 -1.138,0.117 -1.639,0.307 -0.394,-0.671 -1.127,-1.125 -2.124,-1.27 -0.664,-0.099 -1.446,-0.035 -2.238,0.191 -0.225,-0.375 -0.565,-0.676 -1.013,-0.886 -0.478,-0.222 -1.066,-0.33 -1.717,-0.331"
         style="fill:#2b2b2b;fill-opacity:1;fill-rule:nonzero;stroke:none"
         id="path524" />
    </g>
    <g
       style="fill:#2d2d2d;fill-opacity:1"
       id="g526"
       transform="matrix(0.35277777,0,0,-0.35277777,95.693943,114.92742)">
      <path
         d="M 0,0 2.71,4.7 0,9.399 H -2.901 L -1.262,4.699 -2.901,0 Z"
         style="fill:#2d2d2d;fill-opacity:1;fill-rule:nonzero;stroke:none"
         id="path528" />
    </g>
    <g
       style="fill:#2d2d2d;fill-opacity:1"
       id="g530"
       transform="matrix(0.35277777,0,0,-0.35277777,94.737845,114.13367)">
      <path
         d="m 0,0 c -1.35,0 -2.45,1.1 -2.45,2.45 0,1.35 1.1,2.44 2.45,2.44 L -4.607,5.812 -5.83,2.091 -3.774,-1.048 Z"
         style="fill:#2d2d2d;fill-opacity:1;fill-rule:nonzero;stroke:none"
         id="path532" />
    </g>
    <g
       style="fill:#ffffff;fill-opacity:1"
       id="g534"
       transform="matrix(0.35277777,0,0,-0.35277777,93.920671,114.13367)">
      <path
         d="M 0,0 C -1.35,0 -2.45,1.1 -2.45,2.45 -2.45,3.8 -1.35,4.89 0,4.89 1.35,4.89 2.44,3.8 2.44,2.45 2.44,1.1 1.35,0 0,0 m 2.71,7.149 h -5.43 l -2.71,-4.699 2.71,-4.7 h 5.43 l 2.71,4.7 z"
         style="fill:#ffffff;fill-opacity:1;fill-rule:nonzero;stroke:none"
         id="path536" />
    </g>
    <g
       style="fill:#ffffff;fill-opacity:1"
       id="g538"
       transform="matrix(0.35277777,0,0,-0.35277777,162.37462,111.50093)">
      <path
         d="M 0,0 -2.013,3.49 0,6.98 H 2.155 L 0.937,3.49 2.155,0 Z"
         style="fill:#ffffff;fill-opacity:1;fill-rule:nonzero;stroke:none"
         id="path540" />
    </g>
    <g
       style="fill:#ffffff;fill-opacity:1"
       id="g542"
       transform="matrix(0.35277777,0,0,-0.35277777,163.08466,110.91147)">
      <path
         d="M 0,0 C 1.003,0 1.82,0.816 1.82,1.819 1.82,2.821 1.003,3.632 0,3.632 L 3.422,4.316 4.33,1.553 2.803,-0.778 Z"
         style="fill:#ffffff;fill-opacity:1;fill-rule:nonzero;stroke:none"
         id="path544" />
    </g>
    <path
       id="path548"
       style="fill:#2d2d2d;fill-opacity:1;fill-rule:nonzero;stroke:none;stroke-width:0.352778"
       d="m 163.69161,110.91147 c 0.35348,0 0.64206,-0.28787 0.64206,-0.6417 0,-0.35349 -0.28858,-0.63959 -0.64206,-0.63959 -0.35348,0 -0.63923,0.2861 -0.63923,0.63959 0,0.35383 0.28575,0.6417 0.63923,0.6417 m -0.71014,-1.87325 h 1.42275 l 0.71014,1.23155 -0.71014,1.23119 h -1.42275 l -0.70979,-1.23119 z" />
    <g
       style="fill:#2d2d2d;fill-opacity:1"
       id="g550"
       transform="matrix(0.35277777,0,0,-0.35277777,135.93689,113.13563)">
      <path
         d="m 0,0 h 4.518 c 1.177,0 2.139,0.963 2.139,2.14 0,1.175 -0.962,2.138 -2.139,2.138 L 0,4.278 C -1.177,4.278 -2.139,3.315 -2.139,2.14 -2.139,0.963 -1.177,0 0,0"
         style="fill:#2d2d2d;fill-opacity:1;fill-rule:nonzero;stroke:none"
         id="path552" />
    </g>
    <path
       id="path556"
       style="fill:#ffffff;fill-opacity:1;fill-rule:nonzero;stroke:none;stroke-width:0.352778"
       d="m 133.39051,111.71213 c 0.3937,-0.83467 1.34796,-1.21214 2.13148,-0.84279 0.78352,0.36972 1.09961,1.34585 0.70591,2.18052 -0.3937,0.83468 -1.34761,1.21215 -2.13113,0.84244 -0.78352,-0.36936 -1.09961,-1.3455 -0.70626,-2.18017" />
    <g
       id="g558"
       transform="matrix(0.35277777,0,0,-0.35277777,133.83081,113.88944)">
      <path
         d="M 0,0 1.239,-0.585 5.547,8.553 4.308,9.137 Z"
         style="fill:#2d2d2d;fill-opacity:1;fill-rule:nonzero;stroke:none"
         id="path560" />
    </g>
    <g
       aria-label="Oops!"
       id="text1087"
       style="font-style:normal;font-weight:normal;font-size:14.1111px;line-height:1.25;font-family:sans-serif;fill:#1a1c20;fill-opacity:1;stroke:none;stroke-width:0.529166"
       transform="matrix(1.1205459,-0.30024937,0.30024937,1.1205459,60.248553,27.713827)">
      <path
         d="m -3.25387,-12.632816 q -1.4816655,0 -2.5823313,-0.620889 -1.0865547,-0.634999 -1.6792209,-1.777998 -0.5926662,-1.157111 -0.5926662,-2.709332 0,-1.552221 0.5926662,-2.69522 0.5926662,-1.15711 1.6792209,-1.777998 1.1006658,-0.620889 2.5823313,-0.620889 1.4816655,0 2.56822026,0.620889 1.10066581,0.620888 1.69333204,1.777998 0.5926662,1.142999 0.5926662,2.69522 0,1.552221 -0.5926662,2.709332 -0.59266623,1.142999 -1.69333204,1.777998 -1.08655476,0.620889 -2.56822026,0.620889 z m 0,-1.707443 q 1.2417768,0 1.9473318,-0.874889 0.71966616,-0.874888 0.71966616,-2.525887 0,-1.650998 -0.70555506,-2.511775 -0.705555,-0.874889 -1.9614429,-0.874889 -1.2558879,0 -1.9614429,0.874889 -0.6914439,0.860777 -0.6914439,2.511775 0,1.650999 0.705555,2.525887 0.705555,0.874889 1.9473318,0.874889 z"
         style="font-style:normal;font-variant:normal;font-weight:800;font-stretch:normal;font-size:14.1111px;font-family:'Nunito Sans';-inkscape-font-specification:'Nunito Sans Ultra-Bold';fill:#1a1c20;fill-opacity:1;stroke-width:0.529166"
         id="path1089" />
      <path
         d="m 6.4419994,-12.646927 q -1.1006658,0 -1.9332208,-0.437444 -0.8325549,-0.451556 -1.2841101,-1.255888 -0.4515552,-0.818444 -0.4515552,-1.91911 0,-1.100666 0.4515552,-1.904999 0.4515552,-0.818443 1.2841101,-1.255887 0.832555,-0.437445 1.9332208,-0.437445 1.1006658,0 1.9332207,0.437445 0.8325549,0.437444 1.2841101,1.255887 0.4515548,0.804333 0.4515548,1.904999 0,1.100666 -0.4515548,1.91911 -0.4515552,0.804332 -1.2841101,1.255888 -0.8325549,0.437444 -1.9332207,0.437444 z m 0,-1.622777 q 1.552221,0 1.552221,-1.989665 0,-1.001888 -0.4092219,-1.495777 -0.3951108,-0.493888 -1.1429991,-0.493888 -1.552221,0 -1.552221,1.989665 0,1.989665 1.552221,1.989665 z"
         style="font-style:normal;font-variant:normal;font-weight:800;font-stretch:normal;font-size:14.1111px;font-family:'Nunito Sans';-inkscape-font-specification:'Nunito Sans Ultra-Bold';fill:#1a1c20;fill-opacity:1;stroke-width:0.529166"
         id="path1091" />
      <path
         d="m 15.697338,-19.8577 q 0.888999,0 1.580443,0.465667 0.705555,0.451555 1.086555,1.28411 0.395111,0.818444 0.395111,1.890887 0,1.072444 -0.395111,1.890888 -0.381,0.804332 -1.072443,1.241777 -0.691444,0.437444 -1.594555,0.437444 -0.705555,0 -1.28411,-0.282222 -0.564444,-0.296333 -0.874888,-0.818444 v 3.527775 h -2.130776 v -9.468548 h 2.102554 v 0.973666 q 0.310444,-0.536222 0.888999,-0.832555 0.578555,-0.310445 1.298221,-0.310445 z m -0.620888,5.587996 q 0.747888,0 1.15711,-0.493888 0.409222,-0.508 0.409222,-1.453444 0,-0.959555 -0.409222,-1.481665 -0.409222,-0.536222 -1.15711,-0.536222 -0.747889,0 -1.15711,0.522111 -0.409222,0.507999 -0.409222,1.467554 0,0.945444 0.409222,1.467555 0.409221,0.507999 1.15711,0.507999 z"
         style="font-style:normal;font-variant:normal;font-weight:800;font-stretch:normal;font-size:14.1111px;font-family:'Nunito Sans';-inkscape-font-specification:'Nunito Sans Ultra-Bold';fill:#1a1c20;fill-opacity:1;stroke-width:0.529166"
         id="path1093" />
      <path
         d="m 22.728633,-12.646927 q -0.959554,0 -1.763887,-0.211667 -0.790222,-0.225777 -1.368777,-0.634999 l 0.564444,-1.467555 q 0.564444,0.381 1.241777,0.592666 0.677333,0.211667 1.368777,0.211667 0.493888,0 0.761999,-0.155222 0.282222,-0.169333 0.282222,-0.451555 0,-0.254 -0.197555,-0.395111 -0.183445,-0.141111 -0.705555,-0.254 l -1.128888,-0.254 q -1.001888,-0.225777 -1.481666,-0.691444 -0.465666,-0.479777 -0.465666,-1.298221 0,-0.649111 0.366889,-1.142999 0.380999,-0.493889 1.058332,-0.776111 0.691444,-0.282222 1.566332,-0.282222 0.747888,0 1.453443,0.225778 0.705555,0.225778 1.27,0.635 l -0.564445,1.41111 q -1.100665,-0.762 -2.173109,-0.762 -0.493888,0 -0.77611,0.169333 -0.282222,0.169334 -0.282222,0.479778 0,0.225777 0.169333,0.352777 0.169333,0.127 0.592666,0.239889 l 1.171221,0.268111 q 1.058333,0.239889 1.53811,0.733777 0.493889,0.479777 0.493889,1.312332 0,1.001889 -0.804333,1.580444 -0.790222,0.564444 -2.187221,0.564444 z"
         style="font-style:normal;font-variant:normal;font-weight:800;font-stretch:normal;font-size:14.1111px;font-family:'Nunito Sans';-inkscape-font-specification:'Nunito Sans Ultra-Bold';fill:#1a1c20;fill-opacity:1;stroke-width:0.529166"
         id="path1095" />
      <path
         d="m 27.291149,-15.977147 -0.663221,-6.745106 2.624664,0.01411 -0.677333,6.730995 z m -0.493888,0.959555 h 2.285998 v 2.257776 h -2.285998 z"
         style="font-style:normal;font-variant:normal;font-weight:800;font-stretch:normal;font-size:14.1111px;font-family:'Nunito Sans';-inkscape-font-specification:'Nunito Sans Ultra-Bold';fill:#1a1c20;fill-opacity:1;stroke-width:0.529166"
         id="path1097" />
    </g>
    <g
       aria-label="ERROR"
       id="text1102"
       style="font-style:normal;font-weight:normal;font-size:8.46667px;line-height:1.25;font-family:sans-serif;fill:#1a1c20;fill-opacity:1;stroke:none;stroke-width:0.264583"
       transform="rotate(3.1177306,-1204.7949,1825.2576)">
      <path
         d="m -8.4059713,17.879648 v -5.969002 h 4.1148017 v 1.024467 h -2.8278678 v 1.397 h 2.6585344 v 1.024468 h -2.6585344 v 1.4986 h 2.8278678 v 1.024467 z"
         style="font-style:normal;font-variant:normal;font-weight:800;font-stretch:normal;font-size:8.46667px;font-family:'Nunito Sans';-inkscape-font-specification:'Nunito Sans Ultra-Bold';fill:#1a1c20;fill-opacity:1;stroke-width:0.264583"
         id="path1104" />
      <path
         d="M 1.8027161,17.879648 H 0.36338221 l -1.03293374,-1.905001 q -0.12700006,-0.220133 -0.30480013,-0.313266 -0.17780004,-0.1016 -0.44873354,-0.1016 h -0.6519336 v 2.319867 h -1.3038671 v -5.969002 h 2.74320105 q 1.04986708,0 1.58326729,0.465667 0.54186686,0.4572 0.54186686,1.329267 0,0.677333 -0.3810001,1.134534 -0.37253351,0.4572 -1.05833378,0.601133 0.46566685,0.118534 0.78740031,0.668867 z m -2.63313437,-3.318934 q 0.5672669,0 0.821267,-0.194734 0.2540001,-0.2032 0.2540001,-0.626533 0,-0.431801 -0.2540001,-0.626534 -0.2540001,-0.194733 -0.821267,-0.194733 H -2.0919521 v 1.642534 z"
         style="font-style:normal;font-variant:normal;font-weight:800;font-stretch:normal;font-size:8.46667px;font-family:'Nunito Sans';-inkscape-font-specification:'Nunito Sans Ultra-Bold';fill:#1a1c20;fill-opacity:1;stroke-width:0.264583"
         id="path1106" />
      <path
         d="M 7.7393073,17.879648 H 6.2999734 L 5.2670396,15.974647 q -0.127,-0.220133 -0.3048001,-0.313266 -0.1778001,-0.1016 -0.4487335,-0.1016 H 3.8615724 v 2.319867 H 2.5577052 v -5.969002 h 2.7432011 q 1.0498671,0 1.5832673,0.465667 0.5418669,0.4572 0.5418669,1.329267 0,0.677333 -0.3810002,1.134534 -0.3725335,0.4572 -1.0583337,0.601133 0.4656668,0.118534 0.7874003,0.668867 z M 5.1061729,14.560714 q 0.5672669,0 0.821267,-0.194734 0.2540001,-0.2032 0.2540001,-0.626533 0,-0.431801 -0.2540001,-0.626534 Q 5.6734398,12.91818 5.1061729,12.91818 H 3.844639 v 1.642534 z"
         style="font-style:normal;font-variant:normal;font-weight:800;font-stretch:normal;font-size:8.46667px;font-family:'Nunito Sans';-inkscape-font-specification:'Nunito Sans Ultra-Bold';fill:#1a1c20;fill-opacity:1;stroke-width:0.264583"
         id="path1108" />
      <path
         d="m 11.187888,17.955848 q -0.889,0 -1.5494004,-0.372533 -0.6519336,-0.381 -1.0075337,-1.066801 -0.3556001,-0.694267 -0.3556001,-1.6256 0,-0.931334 0.3556001,-1.617134 0.3556001,-0.694267 1.0075337,-1.066801 0.6604004,-0.372533 1.5494004,-0.372533 0.889001,0 1.540934,0.372533 0.6604,0.372534 1.016001,1.066801 0.3556,0.6858 0.3556,1.617134 0,0.931333 -0.3556,1.6256 -0.355601,0.685801 -1.016001,1.066801 -0.651933,0.372533 -1.540934,0.372533 z m 0,-1.024467 q 0.745067,0 1.168401,-0.524933 0.4318,-0.524934 0.4318,-1.515534 0,-0.990601 -0.423334,-1.507068 -0.423333,-0.524933 -1.176867,-0.524933 -0.753533,0 -1.176867,0.524933 -0.4148667,0.516467 -0.4148667,1.507068 0,0.9906 0.4233337,1.515534 0.423333,0.524933 1.1684,0.524933 z"
         style="font-style:normal;font-variant:normal;font-weight:800;font-stretch:normal;font-size:8.46667px;font-family:'Nunito Sans';-inkscape-font-specification:'Nunito Sans Ultra-Bold';fill:#1a1c20;fill-opacity:1;stroke-width:0.264583"
         id="path1110" />
      <path
         d="m 20.290483,17.879648 h -1.439334 l -1.032933,-1.905001 q -0.127,-0.220133 -0.3048,-0.313266 -0.177801,-0.1016 -0.448734,-0.1016 h -0.651934 v 2.319867 h -1.303867 v -5.969002 h 2.743201 q 1.049867,0 1.583268,0.465667 0.541867,0.4572 0.541867,1.329267 0,0.677333 -0.381001,1.134534 -0.372533,0.4572 -1.058333,0.601133 0.465666,0.118534 0.7874,0.668867 z m -2.633134,-3.318934 q 0.567267,0 0.821267,-0.194734 0.254,-0.2032 0.254,-0.626533 0,-0.431801 -0.254,-0.626534 -0.254,-0.194733 -0.821267,-0.194733 h -1.261534 v 1.642534 z"
         style="font-style:normal;font-variant:normal;font-weight:800;font-stretch:normal;font-size:8.46667px;font-family:'Nunito Sans';-inkscape-font-specification:'Nunito Sans Ultra-Bold';fill:#1a1c20;fill-opacity:1;stroke-width:0.264583"
         id="path1112" />
    </g>
  </g>
</svg>
