<?xml version="1.0" encoding="UTF-8" standalone="no"?>
<svg
   xmlns:dc="http://purl.org/dc/elements/1.1/"
   xmlns:cc="http://creativecommons.org/ns#"
   xmlns:rdf="http://www.w3.org/1999/02/22-rdf-syntax-ns#"
   xmlns:svg="http://www.w3.org/2000/svg"
   xmlns="http://www.w3.org/2000/svg"
   xmlns:sodipodi="http://sodipodi.sourceforge.net/DTD/sodipodi-0.dtd"
   xmlns:inkscape="http://www.inkscape.org/namespaces/inkscape"
   viewBox="0 0 1626.2869 1208.5704"
   version="1.1"
   id="svg44"
   sodipodi:docname="animexlogolight.svg"
   width="1626.2869"
   height="1208.5704"
   inkscape:version="1.0.1 (3bc2e813f5, 2020-09-07)">
  <metadata
     id="metadata50">
    <rdf:RDF>
      <cc:Work
         rdf:about="">
        <dc:format>image/svg+xml</dc:format>
        <dc:type
           rdf:resource="http://purl.org/dc/dcmitype/StillImage" />
        <dc:title></dc:title>
      </cc:Work>
    </rdf:RDF>
  </metadata>
  <defs
     id="defs48" />
  <sodipodi:namedview
     pagecolor="#ffffff"
     bordercolor="#666666"
     borderopacity="1"
     objecttolerance="10"
     gridtolerance="10"
     guidetolerance="10"
     inkscape:pageopacity="0"
     inkscape:pageshadow="2"
     inkscape:window-width="1920"
     inkscape:window-height="1011"
     id="namedview46"
     showgrid="false"
     inkscape:zoom="0.3101163"
     inkscape:cx="611.28703"
     inkscape:cy="916.47456"
     inkscape:window-x="0"
     inkscape:window-y="32"
     inkscape:window-maximized="1"
     inkscape:current-layer="svg44"
     inkscape:document-rotation="0" />
  <g
     id="g889"
     transform="translate(4.6129586)">
    <path
       d="m 1155.5589,342.41551 c 0,189.11331 -153.3022,342.41552 -342.4155,342.41552 -189.1133,0 -342.41551,-153.30221 -342.41551,-342.41552 C 470.72789,153.30221 624.0301,0 813.1434,0 c 189.1133,0 342.4155,153.30221 342.4155,342.41551 z m 0,0"
       fill="#00d6c1"
       id="path2"
       style="fill:#4198db;fill-opacity:1;stroke-width:1.33756" />
    <path
       d="m 701.60338,487.24302 -68.36711,68.37234 124.77456,124.77455 c 17.95256,2.90501 36.36493,4.44112 55.13257,4.44112 26.57879,0 52.45223,-3.03042 77.28593,-8.75685 z m 0,0"
       fill="#02a894"
       id="path4"
       style="fill:#4198db;fill-opacity:1;stroke-width:1.33756" />
    <path
       d="M 1149.4772,406.84831 903.31379,160.68491 721.37943,462.52427 924.98646,666.1313 C 1039.4576,626.58444 1126.3991,528.04385 1149.4772,406.84831 Z m 0,0"
       fill="#02a894"
       id="path6"
       style="fill:#247abd;fill-opacity:1;stroke-width:1.33756" />
    <path
       d="m 680.15017,494.10325 -42.55115,42.55114 97.91362,97.90839 c 23.50136,23.50136 61.60093,23.49613 85.09707,0 z m 0,0"
       fill="#636978"
       id="path8"
       style="stroke-width:1.33756" />
    <path
       d="m 569.33119,423.33793 c -14.94306,14.94828 -14.94306,39.17589 0,54.11896 l 68.53953,68.53952 54.11895,-54.11895 -68.53953,-68.53953 c -14.94306,-14.94307 -39.17589,-14.94307 -54.11895,0 z m 0,0"
       fill="#414952"
       id="path10"
       style="stroke-width:1.33756" />
    <path
       d="m 588.3862,496.51713 74.24507,-33.99286 20.11565,20.11567 -74.23984,33.99284 z m 0,0"
       fill="#555a66"
       id="path12"
       style="stroke-width:1.33756" />
    <path
       d="m 577.367,485.49793 58.6071,-49.63605 20.11565,20.11566 -58.60709,49.63604 z m 0,0"
       fill="#23272b"
       id="path14"
       style="stroke-width:1.33756" />
    <path
       d="m 585.61181,493.74273 -16.28062,-16.28062 c -1.34279,-1.34278 -2.55495,-2.75872 -3.6574,-4.23736 l 27.28415,-60.93737 c 9.02331,-0.80462 18.27129,1.57791 25.92569,7.15282 z m 0,0"
       fill="#555a66"
       id="path16"
       style="stroke-width:1.33756" />
    <path
       d="m 611.33372,533.71803 68.36711,-68.36711 21.89734,21.89733 -68.36711,68.36711 z m 0,0"
       fill="#23272b"
       id="path18"
       style="stroke-width:1.33756" />
    <path
       d="m 946.13664,494.10325 42.55115,42.55114 -97.91363,97.90839 c -23.49612,23.50136 -61.59571,23.50136 -85.09706,0 z m 0,0"
       fill="#555a66"
       id="path20"
       style="stroke-width:1.33756" />
    <path
       d="m 1056.9556,423.33793 c 14.9431,14.94828 14.9431,39.17589 0,54.12418 l -68.53951,68.5343 -54.11896,-54.11895 68.53957,-68.53953 c 14.943,-14.94307 39.1759,-14.94307 54.1189,0 z m 0,0"
       fill="#23272b"
       id="path22"
       style="stroke-width:1.33756" />
    <path
       d="m 1037.9006,496.51713 -74.24506,-33.99286 -20.11565,20.11567 74.23981,33.99284 z m 0,0"
       fill="#414952"
       id="path24"
       style="stroke-width:1.33756" />
    <path
       d="m 1048.9198,485.49793 -58.60709,-49.63605 -20.11566,20.11566 58.60705,49.63604 z m 0,0"
       fill="#23272b"
       id="path26"
       style="stroke-width:1.33756" />
    <path
       d="m 1040.675,493.74273 16.2806,-16.28062 c 1.3428,-1.34278 2.555,-2.75872 3.6574,-4.23736 l -27.2841,-60.93737 c -9.0233,-0.80462 -18.2713,1.57791 -25.9257,7.15282 z m 0,0"
       fill="#414952"
       id="path28"
       style="stroke-width:1.33756" />
    <path
       d="m 993.0453,555.62059 -68.37234,-68.36711 21.89734,-21.89734 68.3723,68.36711 z m 0,0"
       fill="#23272b"
       id="path30"
       style="stroke-width:1.33756" />
    <path
       d="m 813.1434,684.83103 c 91.8319,0 175.21521,-36.15594 236.7064,-94.99816 L 904.23337,536.79546 c -17.55026,-6.38999 -29.22779,-23.07292 -29.22779,-41.74652 V 453.8458 H 751.28123 v 41.20314 c 0,18.6736 -11.67754,35.35653 -29.22779,41.74652 l -145.61646,53.03741 c 61.49121,58.84222 144.87453,94.99816 236.70642,94.99816 z m 0,0"
       fill="#414952"
       id="path32"
       style="stroke-width:1.33756" />
    <path
       d="M 1049.8498,589.83287 904.23337,536.79546 c -17.55026,-6.38999 -29.22779,-23.07292 -29.22779,-41.74652 V 453.8458 H 812.6157 v 230.98 c 0.17764,0 0.35006,0.005 0.5277,0.005 91.8319,0 175.21521,-36.15594 236.7064,-94.99816 z m 0,0"
       fill="#23272b"
       id="path34"
       style="stroke-width:1.33756" />
    <path
       d="m 872.03787,486.49064 -29.53605,15.17295 c -18.42805,9.46743 -40.2888,9.46743 -58.71683,0 L 754.24894,486.49064 C 710.47518,464.0029 682.95592,418.92815 682.95592,369.71534 V 254.58585 c 0,-71.90432 58.28316,-130.19271 130.18748,-130.19271 71.90433,0 130.18749,58.28839 130.18749,130.18748 v 115.13472 c 0,49.21281 -27.51926,94.28756 -71.29302,116.7753 z m 0,0"
       fill="#555a66"
       id="path36"
       style="stroke-width:1.33756" />
    <path
       d="m 813.1434,124.39314 c -0.17764,0 -0.35006,0.005 -0.5277,0.005 v 384.35014 c 10.24591,0.0836 20.51274,-2.26758 29.88612,-7.0849 l 29.53605,-15.17295 c 43.77376,-22.48774 71.29302,-67.56249 71.29302,-116.7753 V 254.58585 c 0,-71.90434 -58.28316,-130.19271 -130.18749,-130.19271 z m 0,0"
       fill="#414952"
       id="path38"
       style="stroke-width:1.33756" />
    <path
       d="M 879.4676,362.3901 H 750.39301 c -25.30394,0 -45.81146,-20.51274 -45.81146,-45.81146 0,-25.30391 20.50752,-45.81145 45.81146,-45.81145 H 879.4676 c 25.2987,0 45.81145,20.50754 45.81145,45.81145 -0.005,25.29872 -20.51275,45.81146 -45.81145,45.81146 z m 0,0"
       fill="#ffcdbe"
       id="path40"
       style="stroke-width:1.33756" />
    <path
       d="M 879.46237,270.76719 H 812.6157 v 91.62291 h 66.84667 c 25.30393,0 45.81145,-20.51274 45.81145,-45.81146 0,-25.2987 -20.50752,-45.81145 -45.81145,-45.81145 z m 0,0"
       fill="#ffbeaa"
       id="path42"
       style="stroke-width:1.33756" />
  </g>
  <ellipse
     cx="817.75635"
     cy="991.06738"
     rx="595.5589"
     ry="113.10232"
     fill="#546e7a"
     opacity="0.1"
     id="ellipse8"
     style="opacity:0.321152;fill:#808080;fill-opacity:1;stroke-width:1.28228" />
  <g
     aria-label="aNimex"
     id="text16"
     style="font-style:normal;font-variant:normal;font-weight:normal;font-stretch:normal;font-size:78.2022px;line-height:1.25;font-family:Protoculture;-inkscape-font-specification:Protoculture;fill:#1a1c20;fill-opacity:1;stroke:none;stroke-width:1.95506"
     transform="matrix(3.9513676,0,0,3.6064059,1192.7629,1625.3423)">
    <path
       d="m -192.42763,-200.54357 -4.39124,12.63912 h -10.6917 l 13.74648,-39.71206 h 10.6917 l 13.74648,39.71206 h -10.6917 l -2.10016,-6.10955 h -7.06416 z m 7.10235,-2.63475 -3.09296,-8.97339 -3.09296,8.97339 z"
       style="font-style:normal;font-variant:normal;font-weight:normal;font-stretch:normal;font-family:Protoculture;-inkscape-font-specification:Protoculture;fill:#1a1c20;fill-opacity:1;stroke-width:1.95506"
       id="path1505" />
    <path
       d="m -166.27113,-237.54452 h 11.4554 l 21.00157,30.31863 v -30.31863 h 11.4554 v 49.64007 h -11.4554 l -21.00157,-30.31863 v 30.31863 h -11.4554 z"
       style="font-style:normal;font-variant:normal;font-weight:normal;font-stretch:normal;font-family:Protoculture;-inkscape-font-specification:Protoculture;fill:#1a1c20;fill-opacity:1;stroke-width:1.95506"
       id="path1507" />
    <path
       d="m -107.46674,-187.90445 h -9.16433 v -39.71206 h 9.16433 z"
       style="font-style:normal;font-variant:normal;font-weight:normal;font-stretch:normal;font-family:Protoculture;-inkscape-font-specification:Protoculture;fill:#1a1c20;fill-opacity:1;stroke-width:1.95506"
       id="path1509" />
    <path
       d="m -93.720262,-209.97519 v 22.07074 h -9.164318 v -39.71206 h 13.746478 l 8.400627,24.24727 8.400628,-24.24727 h 13.74648 v 39.71206 h -9.16432 v -22.07074 l -7.636934,22.07074 h -10.691707 z"
       style="font-style:normal;font-variant:normal;font-weight:normal;font-stretch:normal;font-family:Protoculture;-inkscape-font-specification:Protoculture;fill:#1a1c20;fill-opacity:1;stroke-width:1.95506"
       id="path1511" />
    <path
       d="m -23.460474,-227.61651 -4.58216,9.16433 h -25.965575 v -9.16433 z m -30.547735,15.27387 h 26.003759 v 9.16432 h -26.003759 z m 0,15.27387 h 30.547735 v 9.16432 h -30.509551 z"
       style="font-style:normal;font-variant:normal;font-weight:normal;font-stretch:normal;font-family:Protoculture;-inkscape-font-specification:Protoculture;fill:#1a1c20;fill-opacity:1;stroke-width:1.95506"
       id="path1513" />
    <path
       d="m 5.5598769,-207.76048 13.7464811,19.85603 H 8.6146504 l -8.40062712,-12.14272 -8.40062718,12.14272 H -18.878311 l 13.7464806,-19.85603 -13.7464806,-19.85603 h 10.6917071 l 8.40062718,12.14273 8.40062712,-12.14273 H 19.306358 Z"
       style="font-style:normal;font-variant:normal;font-weight:normal;font-stretch:normal;font-family:Protoculture;-inkscape-font-specification:Protoculture;fill:#1a1c20;fill-opacity:1;stroke-width:1.95506"
       id="path1515" />
  </g>
</svg>
