<?xml version="1.0" encoding="UTF-8" standalone="no"?>
<svg
   xmlns:dc="http://purl.org/dc/elements/1.1/"
   xmlns:cc="http://creativecommons.org/ns#"
   xmlns:rdf="http://www.w3.org/1999/02/22-rdf-syntax-ns#"
   xmlns:svg="http://www.w3.org/2000/svg"
   xmlns="http://www.w3.org/2000/svg"
   xmlns:sodipodi="http://sodipodi.sourceforge.net/DTD/sodipodi-0.dtd"
   xmlns:inkscape="http://www.inkscape.org/namespaces/inkscape"
   viewBox="0 0 1626.2869 1208.5704"
   version="1.1"
   id="svg44"
   sodipodi:docname="ninja.svg"
   width="1626.2869"
   height="1208.5704"
   inkscape:version="1.0.1 (3bc2e813f5, 2020-09-07)">
  <metadata
     id="metadata50">
    <rdf:RDF>
      <cc:Work
         rdf:about="">
        <dc:format>image/svg+xml</dc:format>
        <dc:type
           rdf:resource="http://purl.org/dc/dcmitype/StillImage" />
      </cc:Work>
    </rdf:RDF>
  </metadata>
  <defs
     id="defs48" />
  <sodipodi:namedview
     pagecolor="#ffffff"
     bordercolor="#666666"
     borderopacity="1"
     objecttolerance="10"
     gridtolerance="10"
     guidetolerance="10"
     inkscape:pageopacity="0"
     inkscape:pageshadow="2"
     inkscape:window-width="1920"
     inkscape:window-height="1011"
     id="namedview46"
     showgrid="false"
     inkscape:zoom="0.20985647"
     inkscape:cx="530.06804"
     inkscape:cy="908.19379"
     inkscape:window-x="0"
     inkscape:window-y="32"
     inkscape:window-maximized="1"
     inkscape:current-layer="svg44" />
  <g
     id="g960"
     transform="matrix(1.3375606,0,0,1.3375606,470.72789,0)">
    <path
       d="M 512,256 C 512,397.38672 397.38672,512 256,512 114.61328,512 0,397.38672 0,256 0,114.61328 114.61328,0 256,0 397.38672,0 512,114.61328 512,256 Z m 0,0"
       fill="#00d6c1"
       id="path2" />
    <path
       d="m 172.60937,364.27734 -51.11328,51.11719 93.28516,93.28516 C 228.20312,510.85156 241.96875,512 256,512 c 19.87109,0 39.21484,-2.26563 57.78125,-6.54688 z m 0,0"
       fill="#02a894"
       id="path4" />
    <path
       d="M 507.45312,304.17187 323.41406,120.13281 187.39453,345.79687 339.61719,498.01953 C 425.19922,468.45312 490.19922,394.78125 507.45312,304.17187 Z m 0,0"
       fill="#02a894"
       id="path6" />
    <path
       d="m 156.57031,369.40625 -31.8125,31.8125 73.20313,73.19922 c 17.57031,17.57031 46.05468,17.5664 63.62109,0 z m 0,0"
       fill="#636978"
       id="path8" />
    <path
       d="m 73.71875,316.5 c -11.171875,11.17578 -11.171875,29.28906 0,40.46094 l 51.24219,51.24218 40.46093,-40.46093 L 114.17969,316.5 c -11.17188,-11.17188 -29.289065,-11.17188 -40.46094,0 z m 0,0"
       fill="#414952"
       id="path10" />
    <path
       d="m 87.964844,371.21094 55.507816,-25.41407 15.03906,15.03907 -55.50391,25.41406 z m 0,0"
       fill="#555a66"
       id="path12" />
    <path
       d="m 79.726562,362.97266 43.816408,-37.10938 15.03906,15.03906 -43.816405,37.10938 z m 0,0"
       fill="#23272b"
       id="path14" />
    <path
       d="M 85.890625,369.13672 73.71875,356.96484 c -1.003906,-1.0039 -1.910156,-2.0625 -2.734375,-3.16797 l 20.398437,-45.55859 c 6.746094,-0.60156 13.660158,1.17969 19.382818,5.34766 z m 0,0"
       fill="#555a66"
       id="path16" />
    <path
       d="m 105.12109,399.02344 51.11328,-51.11328 16.3711,16.37109 -51.11328,51.11328 z m 0,0"
       fill="#23272b"
       id="path18" />
    <path
       d="m 355.42969,369.40625 31.8125,31.8125 -73.20313,73.19922 c -17.5664,17.57031 -46.05078,17.57031 -63.62109,0 z m 0,0"
       fill="#555a66"
       id="path20" />
    <path
       d="m 438.28125,316.5 c 11.17187,11.17578 11.17187,29.28906 0,40.46484 L 387.03906,408.20312 346.57812,367.74219 397.82031,316.5 c 11.17188,-11.17188 29.28906,-11.17188 40.46094,0 z m 0,0"
       fill="#23272b"
       id="path22" />
    <path
       d="m 424.03516,371.21094 -55.50782,-25.41407 -15.03906,15.03907 55.50391,25.41406 z m 0,0"
       fill="#414952"
       id="path24" />
    <path
       d="m 432.27344,362.97266 -43.81641,-37.10938 -15.03906,15.03906 43.8164,37.10938 z m 0,0"
       fill="#23272b"
       id="path26" />
    <path
       d="m 426.10937,369.13672 12.17188,-12.17188 c 1.00391,-1.0039 1.91016,-2.0625 2.73437,-3.16797 l -20.39843,-45.55859 c -6.7461,-0.60156 -13.66016,1.17969 -19.38282,5.34766 z m 0,0"
       fill="#414952"
       id="path28" />
    <path
       d="m 390.5,415.39844 -51.11719,-51.11328 16.3711,-16.3711 51.11718,51.11328 z m 0,0"
       fill="#23272b"
       id="path30" />
    <path
       d="m 256,512 c 68.65625,0 130.99609,-27.03125 176.96875,-71.02344 L 324.10156,401.32422 C 310.98047,396.54687 302.25,384.07422 302.25,370.11328 v -30.80469 h -92.5 v 30.80469 c 0,13.96094 -8.73047,26.43359 -21.85156,31.21094 L 79.03125,440.97656 C 125.00391,484.96875 187.34375,512 256,512 Z m 0,0"
       fill="#414952"
       id="path32" />
    <path
       d="M 432.96875,440.97656 324.10156,401.32422 C 310.98047,396.54687 302.25,384.07422 302.25,370.11328 v -30.80469 h -46.64453 v 172.6875 c 0.13281,0 0.26172,0.004 0.39453,0.004 68.65625,0 130.99609,-27.03125 176.96875,-71.02344 z m 0,0"
       fill="#23272b"
       id="path34" />
    <path
       d="m 300.03125,363.71484 -22.08203,11.34375 c -13.77735,7.07813 -30.1211,7.07813 -43.89844,0 l -22.08203,-11.34375 c -32.72656,-16.8125 -53.30078,-50.51172 -53.30078,-87.30468 V 190.33594 C 158.66797,136.57813 202.24219,93 256,93 c 53.75781,0 97.33203,43.57813 97.33203,97.33203 v 86.07813 c 0,36.79296 -20.57422,70.49218 -53.30078,87.30468 z m 0,0"
       fill="#555a66"
       id="path36" />
    <path
       d="m 256,93 c -0.13281,0 -0.26172,0.0039 -0.39453,0.0039 v 287.35157 c 7.66015,0.0625 15.33594,-1.69531 22.34375,-5.29688 l 22.08203,-11.34375 c 32.72656,-16.8125 53.30078,-50.51172 53.30078,-87.30468 V 190.33594 C 353.33203,136.57812 309.75781,93 256,93 Z m 0,0"
       fill="#414952"
       id="path38" />
    <path
       d="m 305.58594,270.93359 h -96.5 c -18.91797,0 -34.25,-15.33593 -34.25,-34.25 0,-18.91796 15.33203,-34.25 34.25,-34.25 h 96.5 c 18.91406,0 34.25,15.33204 34.25,34.25 -0.004,18.91407 -15.33594,34.25 -34.25,34.25 z m 0,0"
       fill="#ffcdbe"
       id="path40" />
    <path
       d="m 305.58203,202.43359 h -49.97656 v 68.5 h 49.97656 c 18.91797,0 34.25,-15.33593 34.25,-34.25 0,-18.91406 -15.33203,-34.25 -34.25,-34.25 z m 0,0"
       fill="#ffbeaa"
       id="path42" />
  </g>
  <ellipse
     cx="813.14343"
     cy="1054.1467"
     rx="813.14343"
     ry="154.42369"
     fill="#546e7a"
     opacity="0.1"
     id="ellipse8"
     style="opacity:0.321152;fill:#808080;fill-opacity:1;stroke-width:1.75075" />
  <g
     aria-label="aNimex"
     id="text16"
     style="font-style:normal;font-variant:normal;font-weight:normal;font-stretch:normal;font-size:78.2022px;line-height:1.25;font-family:Protoculture;-inkscape-font-specification:Protoculture;fill:#1a1c20;fill-opacity:1;stroke:none;stroke-width:1.95506"
     transform="matrix(5.3949803,0,0,4.9239885,1325.1568,1920.1509)">
    <path
       d="m -192.42763,-200.54357 -4.39124,12.63912 h -10.6917 l 13.74648,-39.71206 h 10.6917 l 13.74648,39.71206 h -10.6917 l -2.10016,-6.10955 h -7.06416 z m 7.10235,-2.63475 -3.09296,-8.97339 -3.09296,8.97339 z"
       style="font-style:normal;font-variant:normal;font-weight:normal;font-stretch:normal;font-family:Protoculture;-inkscape-font-specification:Protoculture;fill:#1a1c20;fill-opacity:1;stroke-width:1.95506"
       id="path1505" />
    <path
       d="m -166.27113,-237.54452 h 11.4554 l 21.00157,30.31863 v -30.31863 h 11.4554 v 49.64007 h -11.4554 l -21.00157,-30.31863 v 30.31863 h -11.4554 z"
       style="font-style:normal;font-variant:normal;font-weight:normal;font-stretch:normal;font-family:Protoculture;-inkscape-font-specification:Protoculture;fill:#1a1c20;fill-opacity:1;stroke-width:1.95506"
       id="path1507" />
    <path
       d="m -107.46674,-187.90445 h -9.16433 v -39.71206 h 9.16433 z"
       style="font-style:normal;font-variant:normal;font-weight:normal;font-stretch:normal;font-family:Protoculture;-inkscape-font-specification:Protoculture;fill:#1a1c20;fill-opacity:1;stroke-width:1.95506"
       id="path1509" />
    <path
       d="m -93.720262,-209.97519 v 22.07074 h -9.164318 v -39.71206 h 13.746478 l 8.400627,24.24727 8.400628,-24.24727 h 13.74648 v 39.71206 h -9.16432 v -22.07074 l -7.636934,22.07074 h -10.691707 z"
       style="font-style:normal;font-variant:normal;font-weight:normal;font-stretch:normal;font-family:Protoculture;-inkscape-font-specification:Protoculture;fill:#1a1c20;fill-opacity:1;stroke-width:1.95506"
       id="path1511" />
    <path
       d="m -23.460474,-227.61651 -4.58216,9.16433 h -25.965575 v -9.16433 z m -30.547735,15.27387 h 26.003759 v 9.16432 h -26.003759 z m 0,15.27387 h 30.547735 v 9.16432 h -30.509551 z"
       style="font-style:normal;font-variant:normal;font-weight:normal;font-stretch:normal;font-family:Protoculture;-inkscape-font-specification:Protoculture;fill:#1a1c20;fill-opacity:1;stroke-width:1.95506"
       id="path1513" />
    <path
       d="m 5.5598769,-207.76048 13.7464811,19.85603 H 8.6146504 l -8.40062712,-12.14272 -8.40062718,12.14272 H -18.878311 l 13.7464806,-19.85603 -13.7464806,-19.85603 h 10.6917071 l 8.40062718,12.14273 8.40062712,-12.14273 H 19.306358 Z"
       style="font-style:normal;font-variant:normal;font-weight:normal;font-stretch:normal;font-family:Protoculture;-inkscape-font-specification:Protoculture;fill:#1a1c20;fill-opacity:1;stroke-width:1.95506"
       id="path1515" />
  </g>
</svg>
