<svg viewBox="0 0 512 512" xmlns="http://www.w3.org/2000/svg"><path d="m512 256c0 141.386719-114.613281 256-256 256s-256-114.613281-256-256 114.613281-256 256-256 256 114.613281 256 256zm0 0" fill="#00d6c1"/><path d="m297.078125 508.703125c108.488281-17.5 194.140625-103.160156 211.628906-211.648437l-215.960937-215.960938-30.746094 101.574219-137.667969 21.621093-71.589843 50.886719 168.140624 168.140625-4.3125 4.878906zm0 0" fill="#02a894"/><path d="m334.976562 244.796875c40.207032-125.183594-78.152343-192.050781-78.152343-192.050781l-.046875.046875c22.257812 50.277343 8.429687 93.1875-11.980469 124.230469-125.183594-40.207032-192.054687 78.152343-192.054687 78.152343l.046874.046875c50.28125-22.257812 93.1875-8.429687 124.234376 11.980469-40.207032 125.183594 78.152343 192.054687 78.152343 192.054687l.046875-.046874c-22.261718-50.28125-8.433594-93.1875 11.980469-124.234376 125.183594 40.207032 192.054687-78.152343 192.054687-78.152343l-.046874-.046875c-50.28125 22.261718-93.1875 8.433594-124.234376-11.980469zm-57.644531 32.535156c-11.78125 11.78125-30.882812 11.78125-42.664062 0s-11.78125-30.882812 0-42.664062 30.882812-11.78125 42.664062 0 11.78125 30.882812 0 42.664062zm0 0" fill="#414952"/><path d="m459.210938 256.777344c-50.28125 22.261718-93.1875 8.433594-124.234376-11.980469 40.207032-125.183594-78.152343-192.050781-78.152343-192.050781l-.046875.046875c17.988281 40.632812 12.40625 76.445312-1.171875 105.078125v67.972656c7.851562-.101562 15.734375 2.835938 21.726562 8.824219 11.78125 11.78125 11.78125 30.882812 0 42.664062-5.992187 5.988281-13.875 8.925781-21.726562 8.824219v69.671875c3.410156-7.433594 7.359375-14.402344 11.597656-20.851563 125.183594 40.207032 192.054687-78.152343 192.054687-78.152343zm0 0" fill="#23272b"/></svg>