<?xml version="1.0" encoding="UTF-8" standalone="no"?>
<svg
   xmlns:dc="http://purl.org/dc/elements/1.1/"
   xmlns:cc="http://creativecommons.org/ns#"
   xmlns:rdf="http://www.w3.org/1999/02/22-rdf-syntax-ns#"
   xmlns:svg="http://www.w3.org/2000/svg"
   xmlns="http://www.w3.org/2000/svg"
   xmlns:sodipodi="http://sodipodi.sourceforge.net/DTD/sodipodi-0.dtd"
   xmlns:inkscape="http://www.inkscape.org/namespaces/inkscape"
   inkscape:version="1.0 (4035a4fb49, 2020-05-01)"
   sodipodi:docname="shuriken.svg"
   id="svg857"
   version="1.1"
   viewBox="0 0 512 512">
  <metadata
     id="metadata863">
    <rdf:RDF>
      <cc:Work
         rdf:about="">
        <dc:format>image/svg+xml</dc:format>
        <dc:type
           rdf:resource="http://purl.org/dc/dcmitype/StillImage" />
      </cc:Work>
    </rdf:RDF>
  </metadata>
  <defs
     id="defs861" />
  <sodipodi:namedview
     inkscape:current-layer="svg857"
     inkscape:window-maximized="1"
     inkscape:window-y="-8"
     inkscape:window-x="-8"
     inkscape:cy="289.93386"
     inkscape:cx="337.34423"
     inkscape:zoom="1.6289062"
     showgrid="false"
     id="namedview859"
     inkscape:window-height="1017"
     inkscape:window-width="1920"
     inkscape:pageshadow="2"
     inkscape:pageopacity="0"
     guidetolerance="10"
     gridtolerance="10"
     objecttolerance="10"
     borderopacity="1"
     bordercolor="#666666"
     pagecolor="#ffffff" />
  <path
     style="fill:#4198db;fill-opacity:1"
     id="path849"
     fill="#00d6c1"
     d="m512 256c0 141.386719-114.613281 256-256 256s-256-114.613281-256-256 114.613281-256 256-256 256 114.613281 256 256zm0 0" />
  <path
     style="fill:#247abd;fill-opacity:1"
     id="path851"
     fill="#02a894"
     d="m297.078125 508.703125c108.488281-17.5 194.140625-103.160156 211.628906-211.648437l-215.960937-215.960938-30.746094 101.574219-137.667969 21.621093-71.589843 50.886719 168.140624 168.140625-4.3125 4.878906zm0 0" />
  <path
     id="path853"
     fill="#414952"
     d="m334.976562 244.796875c40.207032-125.183594-78.152343-192.050781-78.152343-192.050781l-.046875.046875c22.257812 50.277343 8.429687 93.1875-11.980469 124.230469-125.183594-40.207032-192.054687 78.152343-192.054687 78.152343l.046874.046875c50.28125-22.257812 93.1875-8.429687 124.234376 11.980469-40.207032 125.183594 78.152343 192.054687 78.152343 192.054687l.046875-.046874c-22.261718-50.28125-8.433594-93.1875 11.980469-124.234376 125.183594 40.207032 192.054687-78.152343 192.054687-78.152343l-.046874-.046875c-50.28125 22.261718-93.1875 8.433594-124.234376-11.980469zm-57.644531 32.535156c-11.78125 11.78125-30.882812 11.78125-42.664062 0s-11.78125-30.882812 0-42.664062 30.882812-11.78125 42.664062 0 11.78125 30.882812 0 42.664062zm0 0" />
  <path
     id="path855"
     fill="#23272b"
     d="m459.210938 256.777344c-50.28125 22.261718-93.1875 8.433594-124.234376-11.980469 40.207032-125.183594-78.152343-192.050781-78.152343-192.050781l-.046875.046875c17.988281 40.632812 12.40625 76.445312-1.171875 105.078125v67.972656c7.851562-.101562 15.734375 2.835938 21.726562 8.824219 11.78125 11.78125 11.78125 30.882812 0 42.664062-5.992187 5.988281-13.875 8.925781-21.726562 8.824219v69.671875c3.410156-7.433594 7.359375-14.402344 11.597656-20.851563 125.183594 40.207032 192.054687-78.152343 192.054687-78.152343zm0 0" />
</svg>
