<?xml version="1.0" encoding="iso-8859-1"?>
<!-- Generator: Adobe Illustrator 21.0.0, SVG Export Plug-In . SVG Version: 6.00 Build 0)  -->
<svg xmlns="http://www.w3.org/2000/svg" xmlns:xlink="http://www.w3.org/1999/xlink" version="1.1" id="Capa_1" x="0px" y="0px" viewBox="0 0 512 512" style="enable-background:new 0 0 512 512;" xml:space="preserve" width="512" height="512">
<g>
	<g>
		<g>
			<g>
				<g>
					<g>
						<g>
							<g>
								<g>
									<g>
										<g>
											<g>
												<circle style="fill:#4BCDD7;" cx="256" cy="256" r="256"/>
											</g>
										</g>
									</g>
								</g>
							</g>
						</g>
					</g>
				</g>
			</g>
		</g>
	</g>
	<path style="fill:#00B8C1;" d="M512,256c0-7.392-0.332-14.706-0.946-21.939l-114.79-114.962L115.429,392.214l118.86,118.86   C241.448,511.676,248.686,512,256,512C397.385,512,512,397.385,512,256z"/>
	<g>
		<g>
			<g>
				<g>
					<g>
						<g>
							<g>
								<g>
									<g>
										<g>
											<g>
												<circle style="fill:#555A66;" cx="256" cy="256" r="196"/>
											</g>
										</g>
									</g>
								</g>
							</g>
						</g>
					</g>
				</g>
			</g>
		</g>
	</g>
	<g>
		<g>
			<g>
				<g>
					<g>
						<g>
							<g>
								<g>
									<g>
										<g>
											<g>
												<path style="fill:#414952;" d="M256,60c-0.032,0-0.063,0.001-0.095,0.001v391.998c0.032,0,0.063,0.001,0.095,0.001              c108.248,0,196-87.752,196-196S364.248,60,256,60z"/>
											</g>
										</g>
									</g>
								</g>
							</g>
						</g>
					</g>
				</g>
			</g>
		</g>
	</g>
	<g>
		<path style="fill:#FFFFFF;" d="M256,60.25c54.055,0,97.875,43.82,97.875,97.875S310.055,256,256,256l0,0.001    c-54.055,0-97.875,43.819-97.875,97.874c0,54.055,43.82,97.875,97.875,97.875l0,0.25c-108.248,0-196-87.752-196-196    S147.752,60,256,60L256,60.25z"/>
	</g>
	<g>
		<path style="fill:#FFFFFF;" d="M256,452l0-0.25c-0.032,0-0.063-0.001-0.095-0.001v0.25C255.937,451.999,255.968,452,256,452z"/>
		<path style="fill:#E9EDF5;" d="M256,60.25V60c-0.032,0-0.063,0.001-0.095,0.001v196.001c0.032,0,0.063-0.001,0.095-0.001V256    c54.055,0,97.875-43.82,97.875-97.875S310.055,60.25,256,60.25z"/>
	</g>
	<g>
		<circle style="fill:#FFFFFF;" cx="256" cy="354" r="42"/>
	</g>
	<g>
		<path style="fill:#E9EDF5;" d="M256,312c-0.032,0-0.063,0.002-0.095,0.002v83.995c0.032,0,0.063,0.002,0.095,0.002    c23.196,0,42-18.804,42-42S279.196,312,256,312z"/>
	</g>
	<g>
		<circle style="fill:#555A66;" cx="256" cy="156" r="42"/>
	</g>
	<g>
		<path style="fill:#414952;" d="M256,114c-0.032,0-0.063,0.002-0.095,0.002v83.995c0.032,0,0.063,0.002,0.095,0.002    c23.196,0,42-18.804,42-42S279.196,114,256,114z"/>
	</g>
</g>















</svg>
